<svg width="115" height="106" viewBox="0 0 115 106" fill="none" xmlns="http://www.w3.org/2000/svg">
<path d="M18.2839 70.9086L19.7711 72.3639C19.8183 72.4097 19.8837 72.4339 19.9545 72.4316C20.0253 72.4293 20.0963 72.4007 20.1535 72.3515C21.1107 71.5299 20.8329 69.5693 20.7834 68.3948C20.7816 68.3536 20.7852 68.3122 20.7938 68.2735C20.8025 68.2348 20.816 68.1997 20.8335 68.1706C20.8509 68.1415 20.8719 68.1192 20.8949 68.1052C20.9179 68.0911 20.9424 68.0857 20.9667 68.0893L22.8353 68.3499C22.9737 68.3703 23.1037 68.3529 23.2056 68.3005C24.6011 67.5689 21.1687 65.4856 20.6649 65.042C20.6126 64.9956 20.5725 64.9404 20.5486 64.8822C20.5247 64.8239 20.518 64.7648 20.5291 64.7108L21.1861 61.6076C21.3325 60.9073 21.0619 60.6545 20.3742 60.8493C19.413 61.1192 19.0131 61.4896 18.7661 62.5004C18.1974 64.8587 17.5225 61.5829 16.0759 61.8361C15.9807 61.8534 15.8944 61.8868 15.8296 61.9315C15.7647 61.9762 15.7247 62.0299 15.7153 62.0846C15.5267 63.0816 15.0554 63.9038 14.3016 64.5513C14.2462 64.5994 14.2044 64.6603 14.1808 64.7276C14.1572 64.7949 14.1525 64.8662 14.1673 64.9338C14.3711 65.8571 14.8253 66.6229 15.5297 67.2311C15.572 67.2687 15.6015 67.319 15.6142 67.375C15.6269 67.431 15.6221 67.4901 15.6007 67.5443C15.079 68.8262 14.1545 70.8584 15.4431 71.9589C15.8963 72.3466 16.3594 72.3071 16.8325 71.8405L17.901 70.784C17.9347 70.7503 17.9939 70.7444 18.0656 70.7678C18.1373 70.7911 18.2158 70.8417 18.2839 70.9086Z" stroke="#FBB5A0" stroke-width="2"/>
<path d="M17.901 70.7842L16.8325 71.8407C16.3594 72.3073 15.8963 72.3468 15.4431 71.9592C14.1545 70.8586 15.079 68.8265 15.6007 67.5446C15.6221 67.4904 15.6269 67.4313 15.6142 67.3752C15.6015 67.3192 15.572 67.269 15.5297 67.2313C14.8253 66.6231 14.3711 65.8574 14.1673 64.9341C14.1525 64.8664 14.1572 64.7952 14.1808 64.7278C14.2044 64.6605 14.2462 64.5996 14.3016 64.5515C15.0554 63.9041 15.5267 63.0819 15.7153 62.0849C15.7247 62.0301 15.7647 61.9764 15.8296 61.9317C15.8944 61.887 15.9807 61.8536 16.0759 61.8364C17.5225 61.5832 18.1974 64.859 18.7661 62.5007C19.0131 61.4899 19.413 61.1194 20.3742 60.8496C21.0619 60.6548 21.3325 60.9075 21.1861 61.6078L20.5291 64.711C20.518 64.765 20.5247 64.8242 20.5486 64.8824C20.5725 64.9406 20.6126 64.9958 20.6649 65.0422C21.1687 65.4858 24.6011 67.5692 23.2056 68.3007C23.1037 68.3532 22.9737 68.3705 22.8353 68.3502L20.9667 68.0896C20.9424 68.086 20.9179 68.0914 20.8949 68.1054C20.8719 68.1194 20.8509 68.1418 20.8335 68.1708C20.816 68.1999 20.8025 68.235 20.7938 68.2737C20.7852 68.3124 20.7816 68.3538 20.7834 68.395C20.8329 69.5696 21.1107 71.5301 20.1535 72.3518C20.0963 72.401 20.0253 72.4295 19.9545 72.4318C19.8837 72.4341 19.8183 72.41 19.7711 72.3641L18.2839 70.9088C18.2158 70.842 18.1373 70.7914 18.0656 70.768C17.9939 70.7447 17.9347 70.7505 17.901 70.7842Z" fill="#F76A40"/>
<g filter="url(#filter0_d_72_1114)">
<path d="M73.2842 27.4321C71.3197 24.6412 70.4051 24.8363 70.5404 28.0175C70.5723 28.7285 70.3403 30.8238 69.8444 34.3035C69.8344 34.373 69.839 34.4428 69.8579 34.5079C69.8767 34.573 69.9094 34.6318 69.9534 34.6799C71.1266 35.9747 72.097 34.6598 72.5923 33.6122C72.7601 33.2586 72.9395 33.2578 73.1305 33.6097C73.5136 34.3161 74.0705 34.8319 74.8013 35.1569C74.9036 35.202 75.0062 35.2297 75.0922 35.2354C75.1782 35.2411 75.2425 35.2246 75.2746 35.1885C75.8773 34.4928 76.1345 33.6855 76.0463 32.7667C76.0391 32.6984 76.0493 32.6297 76.076 32.5656C76.1028 32.5015 76.1454 32.4436 76.2007 32.3963C76.2561 32.3489 76.3227 32.3134 76.3957 32.2922C76.4687 32.2709 76.5462 32.2647 76.6225 32.2738C77.4844 32.3801 80.1299 33.1546 78.9853 30.9621C78.9048 30.8113 78.8065 30.6967 78.7047 30.635L76.3097 29.2125C76.1255 29.1036 75.9872 28.932 75.9212 28.7306C75.8553 28.5292 75.8664 28.312 75.9523 28.1206C77.8329 23.99 74.8276 23.7475 73.6081 27.3847C73.531 27.6183 73.4231 27.6341 73.2842 27.4321Z" stroke="#FBB5A0"/>
<path d="M73.2842 27.4323C73.4231 27.6344 73.531 27.6186 73.6081 27.3849C74.8276 23.7478 77.8329 23.9902 75.9523 28.1209C75.8664 28.3123 75.8553 28.5294 75.9212 28.7308C75.9872 28.9322 76.1255 29.1038 76.3097 29.2127L78.7047 30.6353C78.8065 30.6969 78.9048 30.8115 78.9853 30.9624C80.1299 33.1548 77.4844 32.3803 76.6225 32.274C76.5462 32.2649 76.4687 32.2712 76.3957 32.2924C76.3227 32.3136 76.2561 32.3492 76.2007 32.3965C76.1454 32.4438 76.1028 32.5017 76.076 32.5658C76.0493 32.6299 76.0391 32.6987 76.0463 32.7669C76.1345 33.6858 75.8773 34.4931 75.2746 35.1888C75.2425 35.2249 75.1782 35.2414 75.0922 35.2356C75.0062 35.2299 74.9036 35.2022 74.8013 35.1571C74.0705 34.8321 73.5136 34.3164 73.1305 33.6099C72.9395 33.258 72.7601 33.2589 72.5923 33.6125C72.097 34.6601 71.1266 35.9749 69.9534 34.6802C69.9094 34.632 69.8767 34.5733 69.8579 34.5082C69.839 34.4431 69.8344 34.3732 69.8444 34.3038C70.3403 30.824 70.5723 28.7287 70.5404 28.0177C70.4051 24.8366 71.3197 24.6414 73.2842 27.4323Z" fill="#EA6D41" stroke="#FBB5A0"/>
</g>
<path d="M100.511 68.7428C99.3881 69.9937 99.6382 73.6418 101.469 71.6012C101.643 71.4037 104.052 68.2454 104.725 68.5459C104.853 68.602 104.95 68.6971 104.995 68.8106C105.303 69.5847 105.813 70.1797 106.523 70.5956C106.595 70.637 106.676 70.66 106.759 70.6625C106.842 70.6651 106.924 70.6471 106.999 70.6102C107.073 70.5732 107.138 70.5185 107.186 70.4508C107.235 70.383 107.267 70.3044 107.278 70.2217C107.455 68.9636 107.143 67.836 106.342 66.8387C106.309 66.7975 106.288 66.7439 106.283 66.6835C106.279 66.6231 106.289 66.5583 106.315 66.4961C106.69 65.576 106.794 64.6215 106.625 63.6324C106.617 63.5862 106.586 63.5456 106.539 63.5195C106.491 63.4934 106.431 63.4837 106.37 63.4927C105.652 63.6025 105.006 63.8723 104.433 64.3021C104.391 64.333 104.337 64.3488 104.275 64.3474C104.214 64.3461 104.149 64.3277 104.088 64.2944C102.766 63.5755 101.793 63.8253 101.167 65.0439C100.651 66.0471 99.4197 66.4046 99.7151 67.6597C99.7451 67.7779 99.8153 67.8791 99.9121 67.9438L100.609 68.4068C100.625 68.4171 100.635 68.4343 100.638 68.4573C100.642 68.4803 100.639 68.5086 100.63 68.5403C100.62 68.572 100.605 68.6064 100.584 68.6413C100.564 68.6762 100.539 68.7108 100.511 68.7428Z" stroke="#39372A" stroke-width="2"/>
<path d="M101.898 67.281C102.322 68.6097 103.384 65.114 101.975 66.9182C101.933 66.9709 101.904 67.0316 101.89 67.0948C101.877 67.1581 101.879 67.222 101.898 67.281Z" stroke="#4E5257" stroke-width="2"/>
<path d="M100.609 68.407L99.9121 67.9441C99.8153 67.8794 99.7451 67.7781 99.7151 67.6599C99.4197 66.4048 100.651 66.0473 101.167 65.0442C101.793 63.8256 102.766 63.5758 104.088 64.2947C104.149 64.3279 104.214 64.3463 104.275 64.3477C104.337 64.349 104.391 64.3333 104.433 64.3023C105.006 63.8726 105.652 63.6028 106.37 63.4929C106.431 63.484 106.491 63.4936 106.539 63.5197C106.586 63.5459 106.617 63.5864 106.625 63.6326C106.794 64.6217 106.69 65.5763 106.315 66.4963C106.289 66.5585 106.279 66.6233 106.283 66.6837C106.288 66.7441 106.309 66.7978 106.342 66.8389C107.143 67.8362 107.455 68.9638 107.278 70.2219C107.267 70.3046 107.235 70.3833 107.186 70.451C107.138 70.5188 107.073 70.5735 106.999 70.6104C106.924 70.6473 106.842 70.6653 106.759 70.6628C106.676 70.6602 106.595 70.6372 106.523 70.5958C105.813 70.18 105.303 69.585 104.995 68.8108C104.95 68.6974 104.853 68.6022 104.725 68.5462C104.052 68.2456 101.643 71.4039 101.469 71.6014C99.6382 73.642 99.3881 69.9939 100.511 68.743C100.539 68.711 100.564 68.6764 100.584 68.6416C100.605 68.6067 100.62 68.5722 100.63 68.5405C100.639 68.5088 100.642 68.4805 100.638 68.4575C100.635 68.4345 100.625 68.4173 100.609 68.407ZM101.898 67.2813C102.322 68.61 103.384 65.1143 101.975 66.9185C101.933 66.9712 101.904 67.0318 101.89 67.0951C101.877 67.1584 101.88 67.2223 101.898 67.2813Z" fill="#DDC5F7"/>
<path d="M101.975 66.9185C103.385 65.1142 102.322 68.61 101.898 67.2812C101.88 67.2223 101.877 67.1583 101.891 67.0951C101.904 67.0318 101.933 66.9712 101.975 66.9185Z" fill="#39372A"/>
<path d="M68.8593 58.5232C67.552 58.8741 67.43 60.3137 65.7144 60.6582C65.6024 60.6829 65.479 60.7697 65.3691 60.9012C64.7477 61.6472 63.9914 62.2327 63.1001 62.6577C62.9778 62.716 62.8823 62.8231 62.8344 62.9557C62.1954 64.7115 64.502 64.6866 65.5731 64.6886C65.5988 64.689 65.6242 64.6948 65.6475 64.7056C65.6707 64.7164 65.6913 64.7321 65.7079 64.7514C65.7244 64.7707 65.7365 64.7933 65.7433 64.8176C65.7501 64.8419 65.7514 64.8673 65.7472 64.8921C65.5886 65.9794 64.951 67.6481 65.963 68.4647C66.0356 68.5232 66.1212 68.5632 66.2128 68.5812C66.3044 68.5992 66.3995 68.5948 66.4902 68.5684C66.5809 68.542 66.6646 68.4943 66.7345 68.4292C66.8044 68.3641 66.8585 68.2835 66.8923 68.194L68.6029 63.6667C68.7655 63.2348 69.0715 62.9823 69.5211 62.9092C70.2254 62.7951 74.1949 62.7318 73.3462 61.2402C72.9618 60.5627 71.2005 60.163 70.4624 59.9509C70.4366 59.9436 70.4126 59.9312 70.3917 59.9144C70.3707 59.8975 70.3533 59.8766 70.3404 59.8528C70.3276 59.829 70.3194 59.8029 70.3166 59.7758C70.3137 59.7487 70.3161 59.7212 70.3237 59.695C70.4144 59.3624 71.8248 55.9821 70.6134 56.4444C70.5601 56.4644 70.5105 56.5009 70.4683 56.5508C70.4261 56.6007 70.3926 56.6628 70.3704 56.7321C70.1707 57.3568 69.7714 57.8626 69.1724 58.2493" stroke="#39372A" stroke-width="2"/>
<path d="M67.3891 62.5183C67.3596 62.4532 67.3054 62.4025 67.2385 62.3773C67.1715 62.3521 67.0974 62.3545 67.0322 62.384C66.9671 62.4135 66.9163 62.4677 66.8911 62.5346C66.8659 62.6015 66.8684 62.6757 66.8979 62.7409C66.9274 62.806 66.9816 62.8567 67.0485 62.8819C67.1154 62.9071 67.1896 62.9047 67.2547 62.8752C67.3199 62.8457 67.3706 62.7915 67.3958 62.7246C67.421 62.6577 67.4186 62.5835 67.3891 62.5183Z" stroke="#313439" stroke-width="2"/>
<path d="M68.7754 58.0554C69.0885 57.7815 69.4643 58.8255 69.0885 57.7815C69.6874 57.3948 70.1692 57.3578 70.3689 56.733C70.3911 56.6638 70.4246 56.6017 70.4668 56.5518C70.509 56.5018 70.5587 56.4654 70.612 56.4453C71.8234 55.9831 70.4129 59.3634 70.3222 59.6959C70.3146 59.7222 70.3122 59.7497 70.3151 59.7767C70.318 59.8038 70.3261 59.83 70.339 59.8538C70.3519 59.8776 70.3693 59.8985 70.3902 59.9153C70.4111 59.9322 70.4352 59.9446 70.4609 59.9519C71.1991 60.1639 72.9604 60.5637 73.3447 61.2412C74.1935 62.7328 70.2239 62.7961 69.5197 62.9102C69.0701 62.9833 68.764 63.2358 68.6014 63.6677L66.8909 68.1949C66.8571 68.2845 66.803 68.3651 66.7331 68.4302C66.6632 68.4953 66.5794 68.543 66.4887 68.5694C66.398 68.5958 66.303 68.6002 66.2113 68.5822C66.1197 68.5641 66.0341 68.5242 65.9616 68.4656C64.9496 67.649 65.5871 65.9804 65.7457 64.8931C65.7499 64.8683 65.7486 64.8429 65.7418 64.8186C65.735 64.7943 65.723 64.7717 65.7064 64.7524C65.6899 64.733 65.6693 64.7174 65.646 64.7066C65.6227 64.6958 65.5973 64.69 65.5716 64.6896C64.5005 64.6876 62.1939 64.7125 62.8329 62.9566C62.8808 62.8241 62.9763 62.717 63.0987 62.6587C63.9899 62.2337 64.7463 61.6482 65.3677 60.9022C65.4775 60.7707 65.601 60.6838 65.713 60.6592C67.4285 60.3147 67.468 58.4063 68.7754 58.0554ZM67.3886 62.5186C67.3591 62.4534 67.305 62.4027 67.238 62.3775C67.1711 62.3523 67.0969 62.3547 67.0318 62.3842C66.9667 62.4137 66.9159 62.4679 66.8907 62.5348C66.8655 62.6017 66.8679 62.6759 66.8975 62.7411C66.927 62.8062 66.9811 62.857 67.0481 62.8821C67.115 62.9073 67.1892 62.9049 67.2543 62.8754C67.3195 62.8459 67.3702 62.7917 67.3954 62.7248C67.4206 62.6579 67.4181 62.5837 67.3886 62.5186Z" fill="#DDC5F7"/>
<path d="M67.2547 62.8752C67.3904 62.8137 67.4505 62.654 67.3891 62.5183C67.3276 62.3827 67.1679 62.3226 67.0322 62.384C66.8966 62.4455 66.8364 62.6052 66.8979 62.7409C66.9593 62.8765 67.1191 62.9366 67.2547 62.8752Z" fill="#39372A"/>
<path d="M79.556 50.7055C81.0851 51.0635 83.4351 50.5464 85.4901 50.8192C86.2377 50.9181 86.4968 51.3425 86.2675 52.0924C85.7618 53.7383 85.2933 55.3538 84.862 56.9388C84.7382 57.3961 84.8997 57.7049 85.3463 57.8653C85.9772 58.0918 86.4826 57.9139 86.8625 57.3315C87.7198 56.0114 88.6173 54.7173 89.5549 53.4493C89.9627 52.9007 90.2797 52.3321 90.7888 53.3358C91.1006 53.9539 92.0247 55.6911 93.5612 58.5473C93.611 58.638 93.6912 58.7043 93.7842 58.7319C95.6225 59.2695 95.7616 57.775 95.6105 56.4356C95.411 54.6966 95.1432 53.5802 95.4702 52.2453C95.4755 52.2253 95.4846 52.2064 95.497 52.1898C95.5094 52.1733 95.5249 52.1593 95.5425 52.1488C95.5602 52.1383 95.5797 52.1314 95.5999 52.1285C95.6201 52.1256 95.6406 52.1268 95.6603 52.132C98.4525 52.8461 102.831 56.8301 104.286 55.5592C104.829 55.0852 104.752 54.4127 104.284 53.8735C102.737 52.0815 101.018 50.5144 99.5988 48.6136C98.1524 46.6744 99.173 45.7972 100.566 44.384C101.218 43.7214 103.043 42.4799 103.153 41.5665C103.229 40.9539 102.962 40.6045 102.351 40.5183C100.376 40.2402 98.5231 41.1951 96.5361 41.5002C96.4672 41.5108 96.3968 41.494 96.3396 41.4533C96.2825 41.4126 96.2432 41.3511 96.2298 41.2819C95.8253 39.1053 95.687 36.128 94.8569 34.168C94.8156 34.0718 94.7491 33.9935 94.6673 33.9445C93.1816 33.0669 92.6143 34.7045 92.3322 35.7708C91.8588 37.563 91.3832 39.3528 90.9053 41.1403C90.8979 41.17 90.8832 41.1974 90.8626 41.2201C90.842 41.2429 90.816 41.2602 90.787 41.2707C90.7579 41.2812 90.7266 41.2845 90.6958 41.2803C90.665 41.2761 90.6356 41.2646 90.6101 41.2468C89.3739 40.3719 85.4318 37.0368 83.9394 37.7808C83.2281 38.1371 83.2014 38.7839 83.8595 39.7212C84.9235 41.2341 86.023 42.7706 87.1582 44.3305C87.4127 44.6822 87.345 44.9532 86.9551 45.1434C84.5356 46.3177 81.7461 47.1257 79.4689 48.6368C78.6012 49.2135 78.013 50.347 79.556 50.7055Z" stroke="#FFDA9B" stroke-width="2"/>
<path d="M79.556 50.7055C78.013 50.347 78.6012 49.2135 79.4689 48.6368C81.7461 47.1257 84.5356 46.3177 86.9551 45.1434C87.345 44.9532 87.4127 44.6822 87.1582 44.3305C86.023 42.7706 84.9235 41.2341 83.8595 39.7212C83.2014 38.7839 83.2281 38.1371 83.9394 37.7808C85.4318 37.0368 89.3739 40.3719 90.6101 41.2468C90.6356 41.2646 90.665 41.2761 90.6958 41.2803C90.7266 41.2845 90.7579 41.2812 90.787 41.2707C90.816 41.2602 90.842 41.2429 90.8626 41.2201C90.8832 41.1974 90.8979 41.17 90.9053 41.1403C91.3832 39.3528 91.8588 37.563 92.3322 35.7708C92.6143 34.7045 93.1816 33.0669 94.6673 33.9445C94.7491 33.9935 94.8156 34.0718 94.8569 34.168C95.687 36.128 95.8253 39.1053 96.2298 41.2819C96.2432 41.3511 96.2825 41.4126 96.3396 41.4533C96.3968 41.494 96.4672 41.5108 96.5361 41.5002C98.5231 41.1951 100.376 40.2402 102.351 40.5183C102.962 40.6045 103.229 40.9539 103.153 41.5665C103.043 42.4799 101.218 43.7214 100.566 44.384C99.173 45.7972 98.1524 46.6744 99.5988 48.6136C101.018 50.5144 102.737 52.0815 104.284 53.8735C104.752 54.4127 104.829 55.0852 104.286 55.5592C102.831 56.8301 98.4525 52.8461 95.6603 52.132C95.6406 52.1268 95.6201 52.1256 95.5999 52.1285C95.5797 52.1314 95.5602 52.1383 95.5425 52.1488C95.5249 52.1593 95.5094 52.1733 95.497 52.1898C95.4846 52.2064 95.4755 52.2253 95.4702 52.2453C95.1432 53.5802 95.411 54.6966 95.6105 56.4356C95.7616 57.775 95.6225 59.2695 93.7842 58.7319C93.6912 58.7043 93.611 58.638 93.5612 58.5473C92.0247 55.6911 91.1006 53.9539 90.7888 53.3358C90.2797 52.3321 89.9627 52.9007 89.5549 53.4493C88.6173 54.7173 87.7198 56.0114 86.8625 57.3315C86.4826 57.9139 85.9772 58.0918 85.3463 57.8653C84.8997 57.7049 84.7382 57.3961 84.862 56.9388C85.2933 55.3538 85.7618 53.7383 86.2675 52.0924C86.4968 51.3425 86.2377 50.9181 85.4901 50.8192C83.4351 50.5464 81.0851 51.0635 79.556 50.7055Z" fill="#FFB53A"/>
<path d="M16.9872 51.5243C22.2888 52.5906 27.4841 53.7255 32.573 54.9289C33.1269 55.058 33.4526 55.4025 33.5502 55.9623C34.7307 62.6282 36.0785 69.2625 37.5934 75.8652C37.8037 76.7676 38.4949 78.1698 39.2353 76.231C40.1749 73.7659 42.2691 66.9094 45.5179 55.6614C45.8196 54.6119 46.2678 53.6351 46.8627 52.7311C46.9386 52.6143 47.0642 52.5198 47.2196 52.4625C54.3692 49.848 61.1871 46.5422 67.6732 42.5452C68.4978 42.0359 68.5547 41.6335 67.8439 41.3379C67.3142 41.1198 66.7681 40.9667 66.2057 40.8788C61.1945 40.1017 56.182 39.505 51.1681 39.0888C50.9591 39.0702 50.7603 38.9908 50.5963 38.8606C50.4324 38.7304 50.3105 38.555 50.2458 38.3563C48.5811 33.2433 46.8918 28.1398 45.1779 23.0457C44.7319 21.7241 44.1476 20.4754 43.4249 19.2995C43.0654 18.7158 42.6919 18.7527 42.3043 19.4101C42.032 19.8728 41.8458 20.3644 41.7456 20.8848C40.4204 27.7798 38.9424 34.8391 37.3113 42.0627C37.28 42.2001 37.2143 42.3273 37.1202 42.4322C37.0262 42.5372 36.9069 42.6164 36.7738 42.6625C30.1062 44.9331 23.406 47.2252 16.6732 49.539C14.6965 50.2206 15.4451 51.21 16.9872 51.5243Z" stroke="#55804A" stroke-width="2"/>
<path d="M16.9875 51.5246C15.4453 51.2103 14.6968 50.2209 16.6734 49.5392C23.4063 47.2255 30.1065 44.9334 36.774 42.6628C36.9072 42.6167 37.0264 42.5374 37.1205 42.4325C37.2145 42.3275 37.2803 42.2004 37.3116 42.063C38.9426 34.8394 40.4207 27.7801 41.7459 20.8851C41.846 20.3646 42.0323 19.873 42.3045 19.4104C42.6921 18.7529 43.0657 18.716 43.4251 19.2997C44.1478 20.4756 44.7322 21.7243 45.1782 23.0459C46.892 28.14 48.5813 33.2436 50.2461 38.3565C50.3107 38.5553 50.4326 38.7306 50.5966 38.8609C50.7606 38.9911 50.9594 39.0705 51.1683 39.0891C56.1822 39.5053 61.1948 40.1019 66.2059 40.879C66.7683 40.967 67.3144 41.12 67.8442 41.3381C68.555 41.6337 68.4981 42.0362 67.6734 42.5455C61.1874 46.5425 54.3695 49.8483 47.2198 52.4628C47.0644 52.5201 46.9389 52.6146 46.863 52.7313C46.2681 53.6354 45.8198 54.6121 45.5182 55.6616C42.2694 66.9096 40.1752 73.7662 39.2355 76.2313C38.4952 78.17 37.804 76.7678 37.5937 75.8654C36.0787 69.2628 34.7309 62.6285 33.5504 55.9626C33.4529 55.4027 33.1272 55.0583 32.5732 54.9291C27.4844 53.7257 22.2891 52.5909 16.9875 51.5246Z" fill="#55804A"/>
<defs>
<filter id="filter0_d_72_1114" x="65.3394" y="24.3278" width="18.4287" height="19.4089" filterUnits="userSpaceOnUse" color-interpolation-filters="sRGB">
<feFlood flood-opacity="0" result="BackgroundImageFix"/>
<feColorMatrix in="SourceAlpha" type="matrix" values="0 0 0 0 0 0 0 0 0 0 0 0 0 0 0 0 0 0 127 0" result="hardAlpha"/>
<feOffset dy="4"/>
<feGaussianBlur stdDeviation="2"/>
<feComposite in2="hardAlpha" operator="out"/>
<feColorMatrix type="matrix" values="0 0 0 0 0 0 0 0 0 0 0 0 0 0 0 0 0 0 0.25 0"/>
<feBlend mode="normal" in2="BackgroundImageFix" result="effect1_dropShadow_72_1114"/>
<feBlend mode="normal" in="SourceGraphic" in2="effect1_dropShadow_72_1114" result="shape"/>
</filter>
</defs>
</svg>
