<svg width="42" height="83" viewBox="0 0 42 83" fill="none" xmlns="http://www.w3.org/2000/svg">
<path d="M19.9885 2.04348C22.9917 4.03742 25.572 6.28096 27.6635 8.71676C29.0475 10.2558 30.4754 12.004 31.9055 13.8964C33.4539 15.9167 34.782 18.006 35.8803 20.1493C36.465 21.3046 36.9311 22.4847 37.2754 23.6818C37.6559 24.9216 37.8625 26.1826 37.8929 27.4496C37.9471 28.7473 37.7632 30.0468 37.345 31.321C36.951 32.6117 36.288 33.8643 35.3743 35.0443L35.215 35.237C35.133 35.1858 35.0609 35.1213 34.9789 35.0636C31.8599 32.8933 27.7206 31.4465 23.1837 30.9408C20.878 30.7004 18.5141 30.7666 16.236 31.1355C13.8492 31.5209 11.6465 32.294 9.83802 33.3809C8.85801 33.9355 8.01878 34.5863 7.3519 35.3088C6.59543 36.115 6.13078 37.0195 5.99326 37.9535C5.895 38.8622 6.09427 39.7713 6.57803 40.6214C7.0618 41.4715 7.81917 42.2435 8.80061 42.8869C10.5795 44.0518 12.9426 44.7711 15.4791 44.9196C17.8004 45.0643 20.1496 44.9114 22.3924 44.4696C24.6033 44.0475 26.705 43.4083 28.6233 42.5745C31.0139 41.5304 33.1175 40.2331 34.844 38.7383C35.1721 39.0965 35.4627 39.4687 35.7139 39.8526C37.2213 42.11 37.9289 44.5629 37.7855 47.0339C37.6759 49.3384 37.0277 51.6238 35.8629 53.8125C34.8608 55.7272 33.5028 57.5589 31.8189 59.2671C30.3367 60.6979 28.6598 62.0413 26.8086 63.2809C23.9431 65.2392 20.7585 66.9916 17.312 68.5066C15.0125 69.5347 12.5981 70.4497 10.0897 71.2437C8.07021 71.8723 6.57489 72.2828 5.40255 72.5833C4.39212 72.855 3.7148 73.0165 3.19949 73.1558L3.66936 72.709C5.00901 71.4352 6.188 70.269 7.14639 69.2702C9.05302 67.2727 10.1381 65.9439 9.79063 65.7855C9.44313 65.627 7.89635 66.6351 5.59056 68.4159C4.42752 69.3064 3.09491 70.3833 1.64274 71.5998L1.09192 72.061C0.851587 72.2578 0.637606 72.4675 0.452361 72.6875C0.337016 72.83 0.240905 72.9786 0.165097 73.1314C0.0680744 73.3258 0.0131871 73.5275 0.00203223 73.7308C-0.0209558 74.1495 0.163257 74.5602 0.527867 74.903C1.03457 75.3202 1.65975 75.6707 2.37065 75.9364L3.93426 76.6397C12.7207 80.4361 20.1812 83.1582 20.5899 82.6927C20.9986 82.2272 14.2164 78.7664 5.42992 74.9634L4.26537 74.4703C4.85636 74.4138 5.44151 74.3323 6.01699 74.2262C7.74223 73.9328 9.43236 73.5554 11.0728 73.0973C13.7846 72.3611 16.3894 71.4661 18.8541 70.4235C22.563 68.883 25.9845 67.0681 29.048 65.0163C31.0723 63.6712 32.9007 62.2087 34.5094 60.6478C36.3867 58.7669 37.8957 56.7449 39.0011 54.6287C40.3007 52.1897 41.0168 49.6415 41.1245 47.0731C41.2754 44.2144 40.4332 41.3794 38.6599 38.7765C38.1538 38.0251 37.5306 37.3098 36.7998 36.6417C37.0189 36.3824 37.2381 36.1232 37.4267 35.8579C38.4216 34.5261 39.1366 33.1163 39.5524 31.6665C39.9643 30.2618 40.1223 28.8331 40.0231 27.4094C39.9483 26.0503 39.6825 24.7001 39.229 23.3756C38.8319 22.1309 38.3075 20.9057 37.6592 19.7081C36.4666 17.5293 35.0257 15.4126 33.3483 13.3753C31.8098 11.4714 30.291 9.74652 28.7919 8.20056C26.5248 5.7714 23.7103 3.57713 20.4396 1.68879C19.5612 1.19604 18.6247 0.748184 17.6381 0.349174C16.9542 0.0910689 16.6175 -0.0282308 16.5571 0.00551109C16.4968 0.039253 17.8566 0.693315 19.9887 2.0566L19.9885 2.04348ZM32.5499 36.7545C32.7858 36.9148 33.0016 37.0884 33.2174 37.2621C31.571 38.7201 29.5267 39.9729 27.1874 40.9576C25.4764 41.674 23.6098 42.2188 21.6522 42.5729C19.7359 42.9318 17.7341 43.0436 15.7618 42.9018C13.8863 42.7736 12.148 42.2258 10.8465 41.3528C10.1993 40.9291 9.69936 40.4207 9.37933 39.8608C9.0593 39.3008 8.92632 38.7019 8.98905 38.103C9.29925 36.9031 10.2877 35.8145 11.7618 35.0491C13.2126 34.1988 14.9708 33.5999 16.8689 33.3094C18.7561 33.0304 20.7056 32.9997 22.6006 33.2191C24.5057 33.4321 26.3393 33.8463 28.0284 34.4452C29.7285 35.0386 31.2571 35.8149 32.5497 36.7414" fill="#072333"/>
</svg>
