<svg width="67" height="99" viewBox="0 0 67 99" fill="none" xmlns="http://www.w3.org/2000/svg">
<path d="M53.7976 20.8461C50.7203 19.2502 47.5038 18.9301 44.1482 19.8858C36.591 22.043 29.7065 25.411 22.6968 28.8811C21.7875 29.3295 20.7885 29.495 19.6999 29.3775C18.6391 29.2661 17.637 29.4501 16.6937 29.9295C16.6062 29.9734 16.528 30.0204 16.4704 30.0638C16.4129 30.1072 16.3789 30.1447 16.3736 30.1708C16.0922 31.578 15.9963 32.9883 16.086 34.4017C16.0912 34.4828 16.1171 34.5611 16.1619 34.6311C16.2067 34.701 16.2693 34.7608 16.3453 34.8063C16.4214 34.8518 16.509 34.882 16.602 34.8946C16.6951 34.9073 16.7913 34.9021 16.8839 34.8795C18.322 34.5331 19.7648 34.479 21.2122 34.7171C22.9798 35.0047 23.6199 33.8079 24.8308 33.1816C29.7977 30.6208 34.9286 28.4481 40.2234 26.6636C40.3255 26.6296 40.4384 26.6249 40.5621 26.6497C40.726 26.6868 40.7306 26.7486 40.576 26.8352C35.575 29.6682 31.825 33.664 29.3261 38.8228" stroke="#A88EC3" stroke-width="2"/>
<path d="M29.3276 38.8225C28.6843 40.2297 28.4725 41.7189 28.692 43.29C29.4575 48.7781 31.1322 54.2059 32.5147 59.5687C32.5218 59.5956 32.5227 59.6238 32.5171 59.6511C32.5116 59.6784 32.4998 59.704 32.4828 59.726C32.4657 59.748 32.4438 59.7658 32.4188 59.7779C32.3937 59.7901 32.3662 59.7963 32.3384 59.7961C22.59 59.9414 12.8401 60.0729 3.08861 60.1904C1.6412 60.209 0.926778 60.4363 1.00564 62.0414C1.20977 66.0373 1.59326 70.2372 2.15614 74.6413C2.22418 75.1918 2.52263 75.5506 3.05149 75.7176C5.07107 76.3516 6.26334 75.6155 6.62828 73.5094C7.09529 70.828 7.50816 68.1295 7.86692 65.4141C7.87503 65.3519 7.90574 65.295 7.95299 65.2546C8.00023 65.2142 8.06058 65.1933 8.12209 65.196L39.0605 66.1285" stroke="#77A36B" stroke-width="2"/>
<path d="M39.0408 66.4119C41.3975 73.7511 44.7733 84.0667 48.5557 94.5388C48.9145 95.5253 49.3645 96.3156 49.9057 96.9094C49.9547 96.9626 50.0177 97.0033 50.0894 97.0283C50.1612 97.0533 50.2397 97.0618 50.3186 97.0532L59.8335 96.0511C59.9961 96.0336 60.1499 95.9593 60.2726 95.8391C60.3952 95.7189 60.4803 95.5592 60.5154 95.3831C60.8062 93.9419 60.5371 93.0419 59.7082 92.6831C58.6737 92.2377 55.5655 92.3352 54.1413 92.3027C53.9864 92.3003 53.8364 92.2487 53.713 92.1552C53.5895 92.0618 53.499 91.9314 53.4547 91.7831C49.4928 78.8368 45.5558 65.9044 41.6434 52.986C41.0372 50.9911 40.4821 48.9824 39.978 46.9597" stroke="#77A36B" stroke-width="2"/>
<path d="M39.9775 46.9599C43.6239 43.1048 50.0213 38.795 55.5465 39.1337C55.6015 39.1374 55.655 39.1527 55.7037 39.1784C55.7524 39.2041 55.7952 39.2398 55.8293 39.283C55.8634 39.3263 55.888 39.3762 55.9017 39.4296C55.9153 39.483 55.9175 39.5386 55.9083 39.593C55.0733 44.4579 54.1393 49.1094 53.1063 53.5475C52.3146 56.9433 51.9202 59.3495 51.9233 60.766C51.9233 61.5763 52.3316 61.8113 53.148 61.4711C53.3341 61.3924 53.5399 61.3729 53.7374 61.4152C53.935 61.4575 54.1147 61.5597 54.2522 61.7077C54.9156 62.4268 56.9939 65.8783 57.982 64.5562C58.025 64.4972 58.0537 64.4299 58.0658 64.3597C58.0779 64.2896 58.073 64.2186 58.0516 64.1526L57.1748 61.4526C56.9707 60.8186 57.164 60.6376 57.7547 60.9098C59.6259 61.7665 60.2243 61.4402 59.5501 59.931C59.0398 58.8036 57.5877 57.6531 56.7155 56.7624C56.6501 56.6939 56.6026 56.6105 56.5775 56.5198C56.5524 56.429 56.5504 56.3339 56.5717 56.2428C57.8645 50.5676 59.0939 44.8816 60.2599 39.1847C60.9588 35.7734 61.2449 32.9915 61.1181 30.8389C60.9279 27.6379 59.4526 25.657 57.1795 23.3328" stroke="#A88EC3" stroke-width="2"/>
<path d="M57.1811 23.3325C57.1749 21.8696 57.5197 20.5351 58.2156 19.3289C58.2884 19.2015 58.4009 19.0938 58.5403 19.0181C63.0542 16.6057 66.3341 12.4769 64.1352 7.17435C64.0939 7.07339 64.0692 6.97305 64.0651 6.88851C64.0609 6.80396 64.0773 6.73983 64.1119 6.7058L65.2022 5.70838C65.2764 5.63988 65.3382 5.56949 65.383 5.50216C65.4279 5.43483 65.4549 5.3722 65.462 5.31869C65.5269 4.89499 64.9996 4.71097 63.88 4.76664C63.3388 4.79447 63.2243 4.59189 63.5367 4.15891L65.1882 1.85789C65.2328 1.79487 65.2577 1.7181 65.2602 1.63617C65.2627 1.55424 65.2426 1.47039 65.2022 1.39398C64.3393 -0.22508 59.6398 3.61149 58.7352 4.50684C58.3517 4.88725 57.8909 5.08828 57.3527 5.10993C52.528 5.30014 49.7213 10.0506 50.5935 14.5645C50.7512 15.3748 51.1286 16.0398 51.7255 16.5593L53.9615 18.4985C54.0875 18.6067 54.1712 18.7493 54.1981 18.9021C54.3311 19.6011 54.1981 20.249 53.7991 20.8459" stroke="#EEB77A" stroke-width="2"/>
<path d="M57.181 23.3325L53.7991 20.8459" stroke="#FE9D42" stroke-width="2"/>
<path d="M39.9791 46.9598L39.3018 46.5144" stroke="#8C4756" stroke-width="2"/>
<path d="M39.3016 46.5142C36.5026 45.0235 33.9124 43.2328 31.531 41.1421" stroke="#914740" stroke-width="2"/>
<path d="M31.531 41.1421L29.3274 38.8225" stroke="#55804A" stroke-width="2"/>
<path d="M31.5309 41.1421C31.435 41.2936 31.3887 41.456 31.3917 41.6292C31.3919 41.6951 31.4093 41.7646 31.4429 41.8333C31.4764 41.902 31.5253 41.9683 31.5866 42.0282C33.6618 44.0292 35.9706 45.7039 38.5128 47.0524C38.5738 47.0856 38.6432 47.0981 38.7098 47.088C38.7764 47.0779 38.8362 47.0457 38.8793 46.9967L39.3015 46.5142" stroke="#1F2847" stroke-width="2"/>
<path d="M44.0004 33.1303C44.3205 32.7082 44.2602 32.119 44.9885 32.0309C45.0823 32.0193 45.1678 31.9986 45.2385 31.9705C45.3092 31.9424 45.3633 31.9075 45.3968 31.8685C45.8839 31.2886 43.903 31.2932 43.2581 32.0309C43.1371 32.1671 42.9999 32.2624 42.8638 32.3046L40.3772 33.0886C40.3449 33.0986 40.3147 33.1144 40.2886 33.1351C40.2624 33.1557 40.2408 33.1808 40.2252 33.2087C40.2095 33.2365 40.2001 33.2666 40.1975 33.297C40.1949 33.3275 40.1993 33.3576 40.2102 33.3855C40.9061 35.1576 43.2303 34.1231 44.0004 33.1303Z" stroke="#A88EC3" stroke-width="2"/>
<path d="M57.1811 23.3325L53.7991 20.8459C54.1981 20.249 54.3311 19.6011 54.1981 18.9021C54.1712 18.7493 54.0875 18.6067 53.9615 18.4985L51.7255 16.5593C51.1286 16.0398 50.7512 15.3748 50.5935 14.5645C49.7213 10.0506 52.528 5.30014 57.3527 5.10993C57.8909 5.08828 58.3517 4.88725 58.7352 4.50684C59.6398 3.61149 64.3393 -0.22508 65.2022 1.39398C65.2426 1.47039 65.2627 1.55424 65.2602 1.63617C65.2577 1.7181 65.2328 1.79487 65.1882 1.85789L63.5367 4.15891C63.2243 4.59189 63.3388 4.79447 63.88 4.76664C64.9996 4.71097 65.5269 4.89499 65.4619 5.31869C65.4549 5.3722 65.4279 5.43483 65.383 5.50216C65.3381 5.56949 65.2764 5.63988 65.2022 5.70838L64.1119 6.7058C64.0773 6.73983 64.0609 6.80396 64.0651 6.88851C64.0692 6.97305 64.0939 7.07339 64.1352 7.17435C66.3341 12.4769 63.0542 16.6057 58.5403 19.0181C58.4009 19.0938 58.2884 19.2015 58.2156 19.3289C57.5197 20.5351 57.1749 21.8696 57.1811 23.3325Z" fill="#FACB98"/>
<path d="M53.7993 20.8458L57.1812 23.3324C59.4544 25.6566 60.9297 27.6375 61.1199 30.8386C61.2467 32.9911 60.9606 35.7731 60.2616 39.1844C59.0956 44.8812 57.8662 50.5673 56.5735 56.2425C56.5522 56.3335 56.5541 56.4287 56.5793 56.5194C56.6044 56.6101 56.6518 56.6936 56.7173 56.7621C57.5894 57.6528 59.0415 58.8033 59.5518 59.9306C60.226 61.4399 59.6276 61.7662 57.7565 60.9095C57.1658 60.6373 56.9725 60.8182 57.1766 61.4523L58.0534 64.1522C58.0748 64.2182 58.0797 64.2892 58.0676 64.3594C58.0555 64.4295 58.0268 64.4969 57.9838 64.5558C56.9957 65.878 54.9173 62.4265 54.2539 61.7074C54.1164 61.5593 53.9367 61.4572 53.7392 61.4149C53.5416 61.3725 53.3358 61.3921 53.1498 61.4708C52.3333 61.811 51.9251 61.576 51.9251 60.7657C51.922 59.3492 52.3163 56.943 53.108 53.5471C54.141 49.109 55.075 44.4575 55.9101 39.5926C55.9193 39.5383 55.917 39.4827 55.9034 39.4293C55.8898 39.3759 55.8651 39.326 55.8311 39.2827C55.797 39.2394 55.7542 39.2038 55.7054 39.1781C55.6567 39.1523 55.6032 39.1371 55.5482 39.1333C50.023 38.7947 43.6256 43.1044 39.9793 46.9596L39.302 46.5142C36.503 45.0235 33.9128 43.2328 31.5314 41.1421L29.3278 38.8225C31.8268 33.6638 35.5767 29.6679 40.5777 26.835C40.7324 26.7484 40.7277 26.6865 40.5638 26.6494C40.4401 26.6247 40.3272 26.6293 40.2251 26.6633C34.9303 28.4478 29.7994 30.6205 24.8325 33.1813C23.6217 33.8076 22.9815 35.0045 21.2139 34.7169C19.7665 34.4787 18.3238 34.5329 16.8856 34.8793C16.793 34.9019 16.6968 34.907 16.6037 34.8944C16.5107 34.8817 16.4231 34.8516 16.347 34.8061C16.271 34.7605 16.2084 34.7007 16.1636 34.6308C16.1188 34.5609 16.0929 34.4826 16.0877 34.4014C15.998 32.988 16.0939 31.5777 16.3753 30.1705C16.3806 30.1444 16.4146 30.1069 16.4721 30.0636C16.5297 30.0202 16.6079 29.9731 16.6954 29.9293C17.6387 29.4499 18.6408 29.2659 19.7016 29.3772C20.7902 29.4948 21.7892 29.3293 22.6985 28.8808C29.7082 25.4108 36.5927 22.0427 44.1499 19.8855C47.5055 18.9299 50.722 19.25 53.7993 20.8458ZM44.0014 33.1303C44.3215 32.7081 44.2612 32.119 44.9896 32.0308C45.0834 32.0192 45.1688 31.9986 45.2395 31.9704C45.3103 31.9423 45.3644 31.9074 45.3978 31.8684C45.8849 31.2886 43.904 31.2932 43.2592 32.0308C43.1382 32.1671 43.0009 32.2623 42.8648 32.3045L40.3782 33.0885C40.346 33.0986 40.3158 33.1144 40.2896 33.135C40.2635 33.1557 40.2419 33.1807 40.2262 33.2086C40.2105 33.2365 40.2011 33.2666 40.1985 33.297C40.196 33.3274 40.2003 33.3575 40.2112 33.3854C40.9071 35.1576 43.2313 34.1231 44.0014 33.1303Z" fill="#DDC5F7"/>
<path d="M29.3276 38.8225L31.5312 41.1421C31.4353 41.2936 31.3889 41.456 31.392 41.6292C31.3922 41.6951 31.4096 41.7646 31.4431 41.8333C31.4767 41.9019 31.5256 41.9683 31.5869 42.0282C33.6621 44.0292 35.9708 45.7039 38.5131 47.0523C38.574 47.0855 38.6435 47.0981 38.7101 47.088C38.7767 47.0779 38.8365 47.0457 38.8796 46.9967L39.3018 46.5142L39.9791 46.9596C40.4832 48.9822 41.0383 50.991 41.6445 52.9858C45.5569 65.9043 49.494 78.8366 53.4558 91.7829C53.5001 91.9313 53.5906 92.0616 53.7141 92.1551C53.8375 92.2485 53.9876 92.3001 54.1424 92.3025C55.5666 92.335 58.6748 92.2376 59.7093 92.6829C60.5382 93.0417 60.8073 93.9417 60.5165 95.3829C60.4814 95.559 60.3964 95.7188 60.2737 95.839C60.151 95.9591 59.9972 96.0334 59.8346 96.051L50.3197 97.053C50.2408 97.0617 50.1623 97.0531 50.0905 97.0281C50.0188 97.0031 49.9559 96.9624 49.9068 96.9092C49.3656 96.3154 48.9156 95.5252 48.5568 94.5386C44.7744 84.0665 41.7048 75.1609 39.3481 67.8218C40.5636 68.2177 41.4048 67.9177 41.8718 66.9218C41.8831 66.8981 41.8884 66.8721 41.8872 66.8457C41.886 66.8193 41.8784 66.7933 41.865 66.7695C41.8516 66.7458 41.8327 66.725 41.8097 66.7088C41.7868 66.6926 41.7604 66.6813 41.7327 66.6759L39.0605 66.1285L8.12208 65.196C8.06058 65.1933 8.00023 65.2142 7.95299 65.2546C7.90574 65.295 7.87503 65.3519 7.86692 65.4141C7.50816 68.1295 7.09529 70.828 6.62828 73.5094C6.26333 75.6155 5.07107 76.3516 3.05149 75.7176C2.52263 75.5506 2.22418 75.1918 2.15614 74.6413C1.59326 70.2372 1.20977 66.0373 1.00564 62.0414C0.926778 60.4363 1.6412 60.209 3.08861 60.1904C12.8401 60.0729 22.59 59.9414 32.3384 59.7961C32.3662 59.7963 32.3937 59.7901 32.4188 59.7779C32.4438 59.7658 32.4657 59.748 32.4828 59.726C32.4998 59.704 32.5116 59.6784 32.5171 59.6511C32.5227 59.6238 32.5218 59.5956 32.5147 59.5687C31.1322 54.2059 29.4575 48.7781 28.692 43.29C28.4724 41.7189 28.6843 40.2297 29.3276 38.8225Z" fill="#55804A"/>
<path d="M31.5309 41.1421C33.9123 43.2328 36.5025 45.0235 39.3015 46.5142L38.8793 46.9967C38.8362 47.0457 38.7764 47.0779 38.7098 47.088C38.6432 47.0981 38.5738 47.0856 38.5128 47.0524C35.9706 45.7039 33.6618 44.0292 31.5866 42.0282C31.5253 41.9683 31.4764 41.902 31.4429 41.8333C31.4093 41.7646 31.3919 41.6951 31.3917 41.6292C31.3887 41.456 31.435 41.2936 31.5309 41.1421Z" fill="#44693A"/>
<path d="M39.3484 67.8216L38.8088 65.948L41.7329 66.6757C41.7606 66.6811 41.787 66.6924 41.81 66.7086C41.8329 66.7248 41.8518 66.7456 41.8652 66.7693C41.8787 66.7931 41.8863 66.8191 41.8875 66.8455C41.8886 66.8719 41.8834 66.8979 41.872 66.9216C41.405 67.9175 40.5638 68.2175 39.3484 67.8216Z" fill="#55804A"/>
</svg>
