<svg width="156" height="30" viewBox="0 0 156 30" fill="none" xmlns="http://www.w3.org/2000/svg">
<path d="M137.78 30C137.488 19.5606 127.473 19.7584 123 22.7568C128.306 17.7901 135.665 21.3772 138.681 23.7916C144.446 17.2052 152.629 20.6723 156 23.2292C144.853 16.5339 138.701 24.6535 137.78 30Z" fill="#050B0B"/>
<path d="M58 13.6069C58.1396 13.5209 58.2893 13.4384 58.4482 13.3598C66.2075 9.24517 74.647 13.2066 77.95 15.7546C91.91 6.48466 99.1333 10.4603 101 13.6069C92.52 6.37478 81.5333 14.8556 77.1 20C73.8358 11.8869 62.747 11.2319 58.4482 13.3598C58.2985 13.4391 58.1491 13.5215 58 13.6069Z" fill="#021713"/>
<path d="M0 3.60693C0.139621 3.5209 0.289259 3.43843 0.448176 3.35977C8.20747 -0.754831 16.647 3.20657 19.95 5.7546C33.91 -3.51534 41.1333 0.460347 43 3.60693C34.52 -3.62522 23.5333 4.85558 19.1 10C15.8358 1.88688 4.74699 1.23186 0.448176 3.35977C0.298517 3.43913 0.149111 3.5215 0 3.60693Z" fill="#021713"/>
</svg>
