<svg width="375" height="145" viewBox="0 0 375 145" fill="none" xmlns="http://www.w3.org/2000/svg">
<path d="M645.01 4.11569C641.74 4.21569 638.49 4.8357 635.37 5.8757C627.09 8.6257 619.66 13.7657 613.8 20.1957C607.84 26.7357 602.16 35.3957 602.55 44.5157C597.89 43.5157 593.03 44.3157 588.72 46.6057C586.14 47.9757 583.83 49.8957 582.03 52.1957C581.58 52.7757 581.18 53.3557 580.82 53.9657C580.06 53.4057 579.29 52.8557 578.5 52.3457C572.78 48.6657 565.76 46.6557 559.09 48.7657C556.6 49.5557 554.37 50.8357 552.55 52.6057C546.14 41.8757 533.11 36.2557 520.82 39.3857C520.59 39.4457 520.35 39.5157 520.11 39.5757C520.01 39.3457 519.91 39.1157 519.81 38.8957C518.97 36.9357 518.05 35.0257 517.04 33.1457C512.94 25.5457 507.43 18.5857 500.78 13.0557C494.22 7.60569 486.53 3.3957 478.21 1.4157C470.02 -0.544303 461.34 -0.464304 453.19 1.6257C444.66 3.8157 436.76 8.36569 430.97 14.9957C426.87 11.9657 421.7 10.5057 416.6 10.8457C413.73 11.0357 410.95 11.7357 408.34 12.9657C407.18 13.5057 406.1 14.1757 405.07 14.9357C403.59 14.2657 402.08 13.6757 400.53 13.1657C394.01 11.0557 387.01 10.4157 380.19 10.5657C373.44 10.7057 366.61 11.6457 360.2 13.8257C348.56 17.7757 338.25 26.0157 333.84 37.7457C333.4 38.9157 333.13 40.1557 332.64 41.3057C332.47 41.7057 332.25 42.1857 331.97 42.5257C331.87 42.6457 331.76 42.7957 331.61 42.8557C331.6 42.8557 331.6 42.8557 331.59 42.8557C330.95 42.7957 330.15 42.1057 329.58 41.8157C328.97 41.4957 328.34 41.2057 327.71 40.9257C326.13 40.2257 324.52 39.6157 322.87 39.1357C316.7 37.3457 310.06 37.1857 303.8 38.6157C292.11 41.2957 281.62 50.4157 277.64 61.8357C272.63 58.6257 266.97 56.7957 260.88 56.9857C254.06 57.1957 247.55 59.9557 242.53 64.5557C242.09 64.9557 241.67 65.3757 241.27 65.7957C237.52 63.8557 233.38 62.5957 229.29 61.7257C216.03 58.9057 200.93 58.8657 189.55 67.2457C185.13 70.5057 181.51 74.6457 179.33 79.5957C171.2 72.8857 160.81 68.9257 150.27 68.4957C138.63 68.0257 127.26 72.2557 118.4 79.7257C114.45 83.0457 110.99 87.0957 108.55 91.6657C104.72 87.2657 100.03 83.8557 94.35 82.0157C90.84 80.8757 86.95 80.3257 83.14 80.5557C81.9 76.6357 79.97 73.0157 77.38 69.8257C72.31 63.5857 64.27 59.8657 56.2 60.3257C52.72 60.5257 48.99 61.4657 45.92 63.3157C45.68 62.8857 45.45 62.4557 45.19 62.0357C44.54 60.9757 43.83 59.9357 43.09 58.9357C41.61 56.9557 40.03 55.0357 38.29 53.2757C34.81 49.7457 30.74 46.7457 26.31 44.5057C16.95 39.7857 6.01 38.4957 -4.18999 40.9857C-9.49999 42.2857 -14.72 44.5057 -19.1 47.8157C-23.54 40.2657 -30.41 33.5257 -39.17 31.7357C-47.36 30.0557 -57 32.4657 -62.18 39.1857C-66.16 33.9557 -73.33 31.0557 -79.64 33.1557C-81.91 27.4557 -84.26 21.8057 -88.91 17.5457C-91.32 15.3257 -94.24 13.6057 -97.46 12.8857C-99.45 12.4357 -101.49 12.3557 -103.52 12.4757C-104 12.5057 -104.5 12.5257 -105 12.5557V137.326C-43.83 140.586 17.54 141.786 78.77 142.916C142.39 144.096 206.03 144.466 269.66 143.996C333.55 143.516 397.44 142.186 461.3 139.976C522.56 137.856 583.83 135.056 645 131.136V4.11569H645.01Z" fill="#E2F0FD"/>
</svg>
