<svg width="375" height="36" viewBox="0 0 375 36" fill="none" xmlns="http://www.w3.org/2000/svg">
<path d="M406 109.331V11.1241C404.439 10.8888 402.883 10.6536 401.322 10.4045C396.958 9.71261 392.509 9.9963 388.132 9.16603C384.636 8.50181 380.802 7.01424 377.487 5.47825C374.985 4.31587 372.935 1.74897 370.428 0.835676C364.653 -1.26767 357.985 1.11934 352.156 2.31631C348.388 3.09122 345.127 5.23609 341.402 6.17014C337.459 7.15262 334.041 8.97921 330.189 10.2384C323.799 12.3349 317.753 14.7496 311.562 17.5656C309.103 18.6864 306.444 19.2538 304.081 20.603C302.64 21.4263 301.483 22.5748 299.952 23.2944C298.722 23.8756 297.396 24.2077 296.154 24.8166C293.164 26.2903 289.674 30.2064 286.654 28.0546C283.543 25.8406 280.083 24.6021 276.496 23.5089C274.067 22.7686 271.607 21.9245 269.238 20.9143C267.333 20.1048 265.561 18.7141 263.626 18.0153C262.667 17.6693 262.137 17.6417 261.317 17.1158C261.01 16.9152 260.889 16.2994 260.576 16.0849C260.057 15.7321 258.02 15.1163 257.465 15.1094C256.139 15.1094 253.8 16.5762 252.443 17.0812C250.816 17.6832 249.526 17.5171 247.88 17.8838C245.125 18.4927 242.654 19.1984 240.001 19.918C238.386 20.3539 236.65 21.108 235.07 21.5854C233.382 22.0905 231.712 22.5541 230.097 23.2529C225.829 25.1141 221.549 26.7954 217.227 28.4628C214.381 29.556 211.343 31.4449 208.679 33.057C207.027 34.0602 205.231 34.5722 203.579 35.6031C199.456 38.1839 194.675 40.0243 190.793 42.9994C187.291 45.6839 182.703 47.7942 178.815 49.9529C176.157 51.4266 173.191 52.9419 170.339 53.7583C164.805 55.3427 159.006 52.3122 154.395 49.4755C152.857 48.5276 152.116 47.5382 150.452 47.2891C148.825 47.047 147.74 47.6281 146.287 48.0502C143.291 48.9289 140.15 49.1157 137.166 49.9598C134.08 50.8316 131.12 51.2121 128.045 52.3122C126.677 52.7966 125.315 53.7514 123.898 54.0281C122.656 54.2703 121.016 53.9797 119.751 53.9797C116.556 53.9797 113.656 53.8275 110.63 52.8381C107.779 51.9109 105.554 49.2541 102.817 48.1471C96.2647 45.4971 88.9103 48.9773 82.4239 51.3298C75.4131 53.869 68.7278 57.5014 61.8979 60.6357C54.2179 64.1643 46.6646 67.9351 39.1112 71.7958C33.4628 74.6879 27.8626 77.8499 22.0876 80.4099C17.7533 82.3333 13.1719 85.177 8.59645 86.1456C4.85294 86.9344 1.4892 88.3873 -2.13978 89.6743C-3.58052 90.1862 -5.29856 91.7568 -6.81767 90.9542L-18 109.331H406Z" fill="#214D4D"/>
<path d="M400 111V95.5466C389.095 91.6015 377.949 89.094 366.803 86.1709C362.348 85.0058 357.983 84.0314 353.492 83.0912C349.996 82.3553 346.415 81.3128 343.281 79.33C339.441 76.8975 336.197 71.2217 336.577 66.1319C336.945 61.1511 340.248 56.9607 340.447 52.0275C340.562 49.1999 338.892 47.7553 336.945 46.3381C336.179 45.7794 335.179 45.316 334.889 44.1986C334.329 42.0727 336.161 39.8378 337.005 38.1957C337.566 37.0987 337.97 35.9404 338.573 34.8775C340.827 30.9187 344.673 27.7572 347.747 24.6569C351.063 21.3182 354.204 17.7819 357.561 14.4841C360.515 11.5746 363.234 8.4744 366.043 5.38098C366.121 5.29241 366.2 5.21065 366.272 5.12888C365.675 4.73369 365.061 4.39301 364.416 4.16135C358.64 2.08999 351.973 4.4407 346.144 5.61947C342.376 6.3826 339.115 8.49485 335.39 9.4147C331.447 10.3822 328.029 12.1811 324.177 13.4212C317.787 15.4857 311.741 17.8637 305.55 20.6369C303.091 21.7407 300.432 22.2994 298.069 23.6281C296.628 24.4389 295.471 25.57 293.94 26.2786C292.71 26.8509 291.384 27.178 290.142 27.7776C289.979 27.8525 289.816 27.9411 289.654 28.0365C287.839 29.8762 285.928 31.5796 283.933 33.0173C279.93 35.9131 275.843 38.625 271.858 41.5617C267.253 44.9617 263.515 49.5133 258.632 52.3887C255.612 54.167 252.755 56.2725 249.747 58.0645C246.154 60.204 242.531 62.1118 239.517 65.2597C235.484 69.4706 231.855 74.1652 227.877 78.4374C225.29 81.2174 222.3 83.3092 219.341 85.5441C213.68 89.8163 208.05 94.286 202.154 98.129C198.953 100.214 196.88 98.5923 193.588 98.0949C193.088 98.0199 190.942 98.2312 191.219 96.9502C191.358 96.3165 192.551 96.0099 192.931 95.7305C193.588 95.24 194.185 94.47 194.589 93.7001C195.445 92.0716 196.313 90.9405 197.519 89.5846C199.001 87.9221 200.949 86.0619 202.106 84.1132C202.649 83.2002 202.769 82.2394 202.745 81.1697C202.721 79.9432 203.131 79.6775 203.33 78.7031C203.625 77.245 203.565 76.1821 204.264 74.7512C204.74 73.7836 205.096 72.7957 205.5 71.8281C207.501 67.079 213.089 65.0485 216.869 62.4252C219.25 60.7763 221.438 59.2909 223.325 56.9879C225.176 54.7258 226.761 52.0139 228.721 49.888C229.414 49.1385 230.264 48.573 230.945 47.803C232.187 46.3926 233.224 44.4711 234.279 42.8767C236.039 40.199 237.709 37.6506 239.644 35.1296C242.145 31.8658 244.346 28.3976 246.98 25.2361C248.843 23.0012 250.73 20.7799 252.448 18.402C252.02 18.2929 251.64 18.2112 251.447 18.2112C250.121 18.2112 247.782 19.6557 246.425 20.1531C244.798 20.7459 243.508 20.5823 241.862 20.9435C239.107 21.5431 236.636 22.2381 233.983 22.9467C232.368 23.3759 230.631 24.1186 229.052 24.5888C227.364 25.0862 225.694 25.5427 224.079 26.2309C219.811 28.0638 215.531 29.7195 211.209 31.3616C208.363 32.4382 205.325 34.2983 202.661 35.8859C201.009 36.8739 199.212 37.3781 197.561 38.3933C193.437 40.9348 188.657 42.7473 184.775 45.6772C181.273 48.3209 176.685 50.3991 172.797 52.5249C170.138 53.9762 167.173 55.4684 164.321 56.2725C163.923 56.3815 163.525 56.4701 163.122 56.5314C161.801 58.0713 160.403 59.5226 158.968 60.9671C154.851 65.103 150.776 69.3002 146.882 73.6951C144.687 76.1753 142.788 78.9553 140.823 81.6671C139.539 83.4318 135.374 87.7245 133.059 86.3481C132.143 85.803 132.287 84.6788 131.594 84.0928C130.762 83.3773 130.382 84.195 129.659 84.7469C126.928 86.8591 124.125 88.5353 121.34 90.5249C118.875 92.2828 116.319 94.0407 113.871 95.6828C112.997 96.2688 112.467 96.6913 111.43 96.9502C110.58 97.1614 109.519 97.1614 108.723 97.3999C108.187 97.5566 107.74 98.0676 107.174 97.9654C106.692 96.8548 108.391 95.7646 108.898 94.9334C109.217 94.4087 109.742 93.7409 110.019 93.2163C110.363 92.5622 110.158 92.4804 110.405 91.7786C110.791 90.6952 111.369 89.3461 112.039 88.5149C112.961 87.3633 114.432 86.682 115.414 85.5645C117.404 83.2956 118.664 80.4679 120.484 78.0695C121.292 77.0065 122.588 76.2843 123.287 75.0987C123.866 74.1175 123.902 72.9047 124.228 71.8213C125.331 68.1624 128.773 65.4096 131.431 63.1952C133.909 61.1306 136.905 58.923 138.744 56.1975C139.654 54.8416 140.697 53.4584 141.938 52.6067C142.975 51.8981 143.904 50.8965 144.826 49.9902C144.699 49.963 144.579 49.9289 144.446 49.9085C142.819 49.67 141.734 50.2423 140.281 50.658C137.285 51.5233 134.144 51.7073 131.16 52.5386C128.074 53.3971 125.114 53.7718 122.039 54.8552C120.671 55.3322 119.309 56.2725 117.892 56.545C117.832 56.5586 117.771 56.5586 117.711 56.5723C116.071 57.5875 114.576 58.6096 112.635 59.1751C111.707 59.4408 110.803 59.1955 109.868 59.4545C108.771 59.7611 108.036 60.3947 107.101 61.0489C103.352 63.6789 99.1261 64.8713 95.4911 67.5559C90.8434 70.99 87.0516 75.5075 82.651 79.3232C81.6805 80.1613 80.5653 80.4134 79.5827 81.1493C79.0522 81.5444 78.8352 82.0418 78.371 82.4507C77.1232 83.5477 75.4654 84.6106 74.0548 85.4351C72.3308 86.4435 69.829 88.0447 67.8397 87.3088C67.032 87.009 66.0313 85.6804 65.754 84.7946C65.3682 83.5749 65.8203 83.0503 66.1277 82.0691C66.7004 80.2498 67.8036 78.8939 68.9308 77.4358C70.3415 75.6029 72.2223 74.0085 73.9463 72.5913C75.6282 71.2081 77.1533 69.3616 78.8955 68.0602C82.5425 65.3415 84.2244 60.8376 87.1903 57.424C87.8896 56.62 88.1548 56.5791 88.9807 56.0476C89.8306 55.5025 90.325 54.9233 91.0845 54.276C92.1153 53.3971 93.3391 53.0291 94.4181 52.2796C95.2681 51.6868 96.1301 51.244 97.0102 50.8488C96.9439 50.8215 96.8776 50.7874 96.8053 50.7602C90.2526 48.1505 82.8982 51.5778 76.4119 53.8945C69.4011 56.3951 62.7158 59.9723 55.8858 63.0589C48.2059 66.5339 40.6525 70.2473 33.0992 74.0494C27.4508 76.8975 21.8505 80.0114 16.0755 82.5324C11.7412 84.4266 7.1598 87.2271 2.58439 88.181C-1.15913 88.9577 -4.52286 90.3886 -8.15184 91.6559C-9.59258 92.1602 -11.3106 93.7069 -12.8297 92.9165L-24 111H400Z" fill="#1B3C3E"/>
</svg>
