<svg width="375" height="160" viewBox="0 0 375 160" fill="none" xmlns="http://www.w3.org/2000/svg">
<path d="M-24 17.182C-22.3431 15.8049 -20.6804 14.454 -19.0006 13.1687C-15.2453 10.3096 -11.9372 7.77837 -7.83221 6.57177C-4.66746 5.64058 -1.7607 3.45033 1.35246 2.1388C3.02084 1.44369 4.71215 0.748587 6.32893 0.13217C8.31837 -0.615399 10.2619 1.99454 11.9877 3.29295C14.3784 5.10286 16.6431 7.41114 19.0568 9.19482C21.2469 10.808 22.9726 12.9851 25.0595 14.8606C26.682 16.3164 28.3045 17.3918 29.8525 19.1099C33.1376 22.756 36.9158 25.1298 40.3501 28.3168C47.8778 35.3073 55.354 42.5338 62.9448 49.3668C66.5568 52.6194 70.0598 56.2392 73.7578 59.2426C77.2722 62.0886 81.1537 64.6068 84.4618 68.0561C87.9762 71.7152 91.4793 74.9809 95.332 77.5515C98.4165 79.6106 101.49 82.2074 104.671 83.7419C109.482 86.0633 114.567 91.0734 119.664 88.1355C121.636 86.9945 123.866 86.483 125.73 84.9354C127.283 83.6501 128.831 82.4829 130.414 81.2894C133.808 78.7319 137.443 77.5909 140.946 75.558C143.411 74.1284 146.157 72.8956 148.388 70.4824C149.368 69.4201 149.718 68.0299 150.796 67.1511C151.764 66.3642 152.848 65.4855 153.846 64.8297C156.294 63.2165 158.547 60.9738 160.995 59.3475C163.093 57.9573 165.266 57.0524 167.382 55.7015C169.142 54.5867 170.925 53.2621 172.725 52.3702C174.015 51.7276 175.363 51.9768 176.716 51.9636C180.07 51.9243 183.274 54.5343 186.439 56.331C188.945 57.7475 191.416 59.8066 193.812 61.6821C195.217 62.7837 196.725 63.4657 198.146 64.4756C199.568 65.4986 200.755 67.2036 202.148 68.3053C208.111 73.0399 214.165 77.0663 220.26 81.3025C221.659 82.273 222.937 83.519 224.29 84.6075C225.408 85.5125 226.681 85.8142 227.839 86.5486C229.599 87.6634 231.336 89.0274 233.102 89.9061C234.702 90.7061 236.313 91.0734 237.735 89.9061C238.881 88.9618 239.879 87.7552 241.18 87.1256C244.827 85.3813 248.146 82.4042 251.747 80.4238C253.862 79.2565 255.989 78.4565 258.082 77.3679C259.67 76.5285 261.281 74.8498 262.841 73.8006C265.787 71.8202 269.118 69.7217 271.635 66.4429C273.212 64.3838 274.542 63.0592 276.388 61.6821C276.996 61.223 277.575 60.4099 278.211 60.0951C278.842 59.7803 279.427 60.0951 280.052 59.9509C280.533 59.8459 280.929 59.3344 281.37 59.2033C281.8 59.0721 282.03 59.5574 282.397 59.5049C283.308 59.3606 284.14 59.0197 285.068 59.0197C286.582 59.0328 287.843 59.1246 289.254 58.3639C290.807 57.5245 292.321 56.6852 293.858 55.7146C295.732 54.5474 297.085 52.6457 298.863 51.2817C300.875 49.7341 302.824 47.9766 304.619 45.7732C305.634 44.5273 306.706 44.1732 307.789 43.2027C308.747 42.3502 309.515 41.2091 310.53 40.5009C315.437 37.091 320.448 33.6285 325.551 31.0317C328.039 29.7595 330.482 28.2513 332.895 26.625C334.925 25.261 337 23.1626 339.093 22.1789C341.077 21.2346 343.032 21.051 344.992 20.0149C346.311 19.3198 347.584 17.864 348.937 17.5624C350.324 17.2476 351.844 18.323 353.145 18.9001C354.504 19.5165 355.719 20.6707 357.078 21.3396C360.914 23.2019 365.007 25.0643 368.78 27.4644C371.6 29.2611 374.37 31.2022 377.076 33.458C378.297 34.481 379.501 35.6089 380.739 36.5795C382.11 37.6549 383.566 37.7992 384.965 38.7041C386.799 39.8976 388.531 41.537 390.365 42.7174C392.097 43.8453 393.857 44.3437 395.508 45.7995C398.507 48.4619 401.752 50.062 404.733 52.8162C405.157 53.2096 405.576 53.6031 406 53.9965V220.796C401.511 221.098 397.016 221.216 392.515 221.124C370.127 220.665 347.945 214.921 325.568 214.435C313.213 214.173 300.898 217.413 288.629 219.275C277.988 220.888 267.313 221.911 256.695 223.944C241.456 226.856 225.993 230.449 210.639 230.921C196.289 231.367 182.025 229.859 167.732 227.892C154.27 226.042 140.808 224.337 127.369 222.029C109.264 218.921 91.1926 214.921 73.1156 211.34C56.5064 208.048 39.9029 204.402 23.414 199.707C7.59024 195.195 -8.15328 189.923 -24 185.595V17.182Z" fill="#437273"/>
</svg>
