<svg width="375" height="241" viewBox="0 0 375 241" fill="none" xmlns="http://www.w3.org/2000/svg">
<path d="M587 17.8684C584.646 16.4384 582.284 15.0284 579.897 13.6984C574.561 10.7284 569.86 8.08843 564.028 6.83843C559.531 5.86843 555.401 3.58843 550.977 2.22843C548.607 1.49843 546.203 0.778434 543.906 0.138434C541.079 -0.641566 538.318 2.06843 535.866 3.42843C532.469 5.30843 529.251 7.71843 525.821 9.56843C522.709 11.2484 520.257 13.5184 517.292 15.4684C514.987 16.9884 512.681 18.0984 510.482 19.8884C505.814 23.6884 500.445 26.1484 495.566 29.4684C484.87 36.7384 474.247 44.2584 463.461 51.3584C458.329 54.7384 453.351 58.5084 448.097 61.6284C443.103 64.5884 437.588 67.2084 432.888 70.7884C427.894 74.5884 422.917 77.9984 417.442 80.6684C413.06 82.8084 408.693 85.5184 404.172 87.1084C397.337 89.5184 390.111 94.7384 382.869 91.6784C380.067 90.4884 376.898 89.9584 374.25 88.3584C372.043 87.0284 369.843 85.7984 367.595 84.5584C362.772 81.8984 357.607 80.7084 352.63 78.5984C349.127 77.1084 345.225 75.8384 342.056 73.3184C340.663 72.2084 340.166 70.7684 338.635 69.8584C337.258 69.0384 335.718 68.1284 334.301 67.4484C330.822 65.7684 327.621 63.4384 324.142 61.7484C321.161 60.2984 318.073 59.3584 315.067 57.9584C312.566 56.7984 310.033 55.4284 307.475 54.4884C305.642 53.8184 303.728 54.0784 301.805 54.0584C297.039 54.0184 292.486 56.7384 287.989 58.6084C284.429 60.0884 280.918 62.2284 277.513 64.1784C275.517 65.3184 273.374 66.0284 271.354 67.0884C269.334 68.1484 267.639 69.9184 265.668 71.0684C257.196 75.9884 248.593 80.1784 239.934 84.5784C237.946 85.5884 236.129 86.8784 234.207 88.0184C232.618 88.9584 230.81 89.2684 229.164 90.0384C226.663 91.1984 224.195 92.6084 221.686 93.5284C219.413 94.3584 217.124 94.7484 215.104 93.5284C213.474 92.5384 212.057 91.2884 210.208 90.6384C205.026 88.8184 200.31 85.7284 195.194 83.6684C192.188 82.4484 189.166 81.6284 186.192 80.4884C183.936 79.6184 181.646 77.8684 179.431 76.7784C175.243 74.7184 170.51 72.5284 166.934 69.1184C164.694 66.9784 162.804 65.6084 160.181 64.1684C159.317 63.6884 158.495 62.8484 157.59 62.5184C156.694 62.1884 155.863 62.5184 154.975 62.3684C154.291 62.2584 153.729 61.7284 153.102 61.5884C152.491 61.4584 152.165 61.9584 151.644 61.8984C150.348 61.7484 149.167 61.3884 147.847 61.3984C145.697 61.4184 143.905 61.5184 141.901 60.7184C139.693 59.8384 137.542 58.9684 135.359 57.9684C132.695 56.7484 130.773 54.7784 128.247 53.3584C125.388 51.7484 122.618 49.9184 120.068 47.6284C118.626 46.3384 117.103 45.9584 115.563 44.9484C114.203 44.0584 113.111 42.8684 111.669 42.1384C104.696 38.5984 97.5763 34.9884 90.326 32.2884C86.7905 30.9684 83.3202 29.3884 79.8906 27.6984C77.0068 26.2784 74.0578 24.0984 71.0844 23.0684C68.2658 22.0884 65.4878 21.8984 62.7018 20.8184C60.8281 20.0984 59.0197 18.5784 57.0971 18.2684C55.1257 17.9484 52.9669 19.0584 51.1177 19.6684C49.187 20.3084 47.46 21.5184 45.5293 22.1984C40.0794 24.1384 34.2629 26.0784 28.9026 28.5684C24.8946 30.4284 20.96 32.4584 17.1149 34.8084C15.3797 35.8684 13.669 37.0384 11.9094 38.0484C9.9624 39.1684 7.89323 39.3184 5.90552 40.2584C3.29869 41.4984 0.838495 43.1984 -1.76833 44.4284C-4.22853 45.5984 -6.72945 46.1184 -9.0756 47.6384C-13.3361 50.4084 -17.947 52.0784 -22.1831 54.9384C-22.7859 55.3484 -23.3806 55.7584 -23.9834 56.1684V229.698C-17.6048 230.018 -11.2181 230.128 -4.82321 230.038C26.9882 229.558 58.5064 223.578 90.3016 223.088C107.857 222.818 125.355 226.188 142.788 228.128C157.908 229.808 173.077 230.868 188.164 232.978C209.817 236.008 231.787 239.738 253.603 240.238C273.993 240.698 294.262 239.138 314.57 237.088C333.698 235.158 352.826 233.388 371.921 230.988C397.647 227.758 423.324 223.588 449.009 219.868C472.609 216.448 496.201 212.658 519.63 207.758C542.114 203.058 564.484 197.568 587 193.078V17.8684Z" fill="#588380"/>
<path d="M191.023 87.0884C192.008 87.0884 193.059 86.9785 194.045 87.0685C194.868 87.1385 195.251 87.6184 195.853 87.7984C197.214 88.2084 198.232 87.8084 199.43 86.8784C199.755 86.6284 200.081 86.3584 200.399 86.0984C198.68 85.2284 196.953 84.3884 195.177 83.6684C192.171 82.4484 189.149 81.6284 186.176 80.4884C183.919 79.6184 181.63 77.8684 179.414 76.7784C175.227 74.7184 170.494 72.5284 166.918 69.1184C164.677 66.9784 162.787 65.6084 160.164 64.1684C159.301 63.6884 158.478 62.8484 157.574 62.5184C156.678 62.1884 155.847 62.5184 154.959 62.3684C154.274 62.2584 153.712 61.7284 153.085 61.5884C152.474 61.4584 152.148 61.9584 151.627 61.8984C150.332 61.7484 149.15 61.3884 147.831 61.3984C145.68 61.4184 143.888 61.5184 141.884 60.7184C141.159 60.4284 140.442 60.1384 139.725 59.8384C139.888 60.6784 139.921 61.6884 140.377 62.3484C140.963 63.1984 141.705 63.6184 142.601 64.3684C144.075 65.6084 144.507 66.0484 146.373 65.9984C148.018 65.9484 148.93 66.1284 150.275 66.6984C153.093 67.8784 155.415 68.5484 156.466 72.3884C157.223 75.1484 157.395 76.8885 159.073 78.8185C159.586 79.4085 159.887 80.1084 160.36 80.7084C161.345 81.9484 162.347 82.5284 163.569 83.4284C165.142 84.5884 165.907 85.2284 167.863 85.2884C169.158 85.3284 170.453 85.2484 171.748 85.2684C173.679 85.2984 175.251 84.9684 177.043 84.1084C178.697 83.3184 178.99 83.4084 180.164 85.0184C182.485 88.2084 183.398 88.3684 186.697 87.3084C188.082 86.8584 189.63 87.0884 191.023 87.0884Z" fill="#699597"/>
<path d="M-18.7619 66.0184C-15.8455 63.4284 -12.3426 61.3885 -9.03517 59.3485C-3.87039 56.1685 0.113165 50.9884 4.97653 47.4484C7.52634 45.5884 9.8399 44.5484 12.797 43.9284C14.3611 43.5984 15.5668 43.8984 17.1146 43.0784C18.695 42.2384 20.2183 40.8285 21.5788 39.4385C23.7294 37.2385 25.7904 34.6385 28.1121 32.7185C30.4338 30.7985 33.2036 30.2984 35.8267 29.3284C37.0324 28.8884 38.3032 27.8684 39.5252 27.2084C40.7553 26.5484 41.9528 26.2984 43.0933 25.3984C45.8549 23.2284 48.3232 22.8685 51.4758 21.9385C53.7731 21.2585 56.4451 20.6184 58.3188 18.6284C57.9115 18.4684 57.496 18.3384 57.0805 18.2684C55.1091 17.9484 52.9503 19.0584 51.1011 19.6684C49.1704 20.3084 47.4434 21.5184 45.5127 22.1984C40.0628 24.1384 34.2463 26.0785 28.886 28.5685C24.878 30.4285 20.9434 32.4585 17.0983 34.8085C15.3631 35.8685 13.6524 37.0384 11.8928 38.0484C9.9458 39.1684 7.87663 39.3184 5.88892 40.2584C3.28209 41.4984 0.821901 43.1984 -1.78493 44.4284C-4.24512 45.5984 -6.74605 46.1184 -9.0922 47.6384C-13.3527 50.4084 -17.9636 52.0785 -22.1997 54.9385C-22.8025 55.3485 -23.3972 55.7584 -24 56.1684V68.9184C-22.1182 68.3584 -20.3504 67.4284 -18.7619 66.0184Z" fill="#699597"/>
<path d="M263.818 80.8584C266.604 81.5184 269.089 83.0385 271.924 81.9085C274.449 80.8985 276.551 78.7185 278.637 76.7785C280.746 74.8185 283.109 72.0385 285.455 70.6185C287.255 69.5285 289.211 69.7485 291.035 68.7785C294.416 66.9785 297.365 63.8585 300.314 61.2085C302.514 59.2285 304.428 56.5984 306.481 54.2284C304.957 53.9184 303.385 54.0885 301.805 54.0685C297.039 54.0285 292.485 56.7485 287.989 58.6185C284.429 60.0985 280.918 62.2385 277.512 64.1885C275.517 65.3285 273.374 66.0385 271.354 67.0985C269.333 68.1585 267.639 69.9284 265.668 71.0784C257.195 75.9984 248.593 80.1885 239.933 84.5885C237.946 85.5985 236.129 86.8885 234.206 88.0285C232.618 88.9685 230.809 89.2785 229.164 90.0485C226.663 91.2085 224.195 92.6184 221.686 93.5384C220.822 93.8584 219.95 94.1084 219.095 94.2284C219.225 94.4984 219.372 94.7485 219.576 94.9385C222.068 97.2185 229.229 93.2484 231.616 91.9184C232.227 91.5784 232.699 90.9785 233.367 90.9085C233.872 90.8585 233.946 91.5884 234.516 91.7284C236.251 92.1684 238.133 91.2784 239.787 90.7584C243.99 89.4384 247.933 87.5484 251.884 85.5084C256.112 83.3284 258.979 79.7084 263.818 80.8584Z" fill="#699597"/>
</svg>
