<svg width="375" height="191" viewBox="0 0 375 191" fill="none" xmlns="http://www.w3.org/2000/svg">
<path d="M-20.9784 66.9763C-19.131 65.4654 -17.197 64.1003 -15.3424 62.669C-13.5167 61.2774 -11.0198 60.5484 -9.03531 59.9653C-6.16321 59.1171 -3.29111 58.5207 -0.404573 57.7918C4.84892 56.4665 8.73853 50.2904 13.5663 47.441C16.2363 45.8639 18.8198 43.7301 21.3238 42.1397C21.8001 43.2795 22.3846 42.5506 23.0774 42.7626C23.4743 42.8819 23.7774 43.3856 24.1743 43.6241C26.3103 44.8567 28.7494 45.6916 30.9576 46.6591C33.2741 47.6663 35.4967 49.1507 37.7843 50.2905C40.3822 51.5893 42.5832 53.8025 45.1161 55.1014C46.8119 55.9628 48.3274 57.9508 50.016 58.9978C51.1345 59.7002 52.2242 60.5219 53.2922 61.4099C55.4499 63.1858 57.5354 64.9087 59.823 66.2606C62.7312 67.9835 66.0796 69.5871 69.2836 68.7522C71.1166 68.2618 72.9206 66.0353 74.5876 64.8292C76.2979 63.5834 78.1164 62.5762 79.805 61.2376C81.4143 59.9653 82.872 58.3484 84.5678 57.3809C86.1554 56.4797 86.7977 56.652 88.3492 57.3809C90.2471 58.2821 92.1738 59.2761 93.9996 60.5882C95.3996 61.5822 96.8356 62.0461 98.2356 62.987C99.3108 63.716 100.234 64.763 101.375 65.2798C106.462 67.5594 111.11 71.6016 116.284 73.5631C117.9 74.1727 119.278 74.8354 120.844 73.7619C122.208 72.8209 123.327 71.5353 124.554 70.263C127.592 67.1353 130.68 64.1268 134.094 62.0195C138.885 59.0773 143.59 55.658 148.584 53.5375C152.56 51.8411 156.363 48.1302 160.036 45.2808C164.308 41.9675 167.909 36.9047 171.972 33.1143C173.776 31.4311 175.725 29.6022 177.644 28.2636C179.672 26.8456 181.44 25.0696 183.381 23.4395C186.152 21.1202 189.14 18.9997 191.997 16.9322C194.292 15.2755 196.912 14.2285 199.069 12.1478C201.025 10.2658 202.966 9.00675 205.117 7.68143C207.563 6.18382 210.334 5.12355 212.651 3.2416C215.544 0.869275 218.041 -0.0982113 221.289 0.00781427C222.494 0.0475739 223.829 0.339159 224.969 0.975312C225.748 1.39941 226.376 2.06206 227.184 2.43315C228.137 2.87051 228.815 3.1886 229.724 3.87777C233.398 6.62118 237.266 8.70193 240.946 11.4718C243.327 13.2478 245.586 15.3683 247.866 17.396C249.808 19.1189 251.994 20.0467 253.906 21.8358C257.442 25.1491 260.914 28.3564 264.673 31.1529C268.332 33.8698 272.005 36.5336 275.685 39.2108C281.877 43.7169 287.621 48.9651 293.741 53.5772C296.252 55.4725 298.511 58.534 301.087 60.0183C302.653 60.9195 305.186 61.0123 306.997 60.6545C309.054 60.2436 311.312 58.7195 313.297 57.2087C314.329 56.4135 315.469 55.7376 316.45 54.8098C317.338 53.9749 317.988 52.7953 319.077 52.5303C321.495 51.9339 324.143 53.4315 326.322 54.7966C329.151 56.5592 331.706 59.0508 334.268 61.3966C336.151 63.1063 337.962 64.4714 339.99 65.7039C341.224 66.4461 342.162 67.7052 343.382 68.5136C345.619 69.998 347.777 72.1053 350.1 73.4041C352.547 74.7691 354.993 75.8692 357.49 77.0089C358.486 77.4595 359.518 77.9897 360.614 77.6583C361.74 77.3137 362.209 75.8824 363.234 75.3523C363.963 74.9812 364.627 75.4185 365.348 75.233C365.933 75.0739 366.337 74.4908 366.929 74.345C367.484 74.2125 367.932 74.4378 368.509 74.2125C369.137 73.9739 369.404 73.6161 370.09 73.5631C371.309 73.4703 372.06 73.0992 373.214 72.7281C373.892 72.5161 374.636 72.7944 375.35 72.5956C375.985 72.4101 376.49 71.986 377.183 71.9329C384.241 71.4691 390.533 68.2221 396.761 63.1196C397.844 62.2316 398.637 60.7605 399.669 59.8063C400.333 59.1834 401.076 58.852 401.762 58.2689C403.357 56.9038 404.706 54.9689 406.258 53.564C407.153 52.7556 408.069 51.9869 409 51.2314V162.532C401.726 162.214 394.293 163.102 387.07 164.016C377.465 165.222 367.982 167.382 358.334 167.979C351.428 168.403 344.565 168.549 337.674 169.397C331.792 170.113 325.933 171.054 320.044 171.61C306.903 172.843 293.741 174.287 280.585 174.99C265.214 175.812 249.793 175.891 234.408 176.116C215.523 176.381 196.623 176.792 177.76 178.542C162.252 179.973 146.809 182.557 131.402 185.566C117.583 188.256 103.792 190.986 89.8357 191C74.3134 191.026 58.8849 189.409 43.4563 186.706C26.0072 183.644 8.6808 178.78 -8.61676 174.155C-12.7445 173.055 -16.8723 171.915 -21 170.722V66.9763H-20.9784Z" fill="#81AAA8"/>
</svg>
