<svg width="375" height="217" viewBox="0 0 375 217" fill="none" xmlns="http://www.w3.org/2000/svg">
<path d="M406 76.0396C404.154 74.3196 402.222 72.7697 400.358 71.1497C398.535 69.5597 396.035 68.7396 394.052 68.0696C391.179 67.1096 388.307 66.4296 385.423 65.6096C380.171 64.1096 376.284 57.0996 371.457 53.8596C368.785 52.0696 366.199 49.6496 363.699 47.8496C363.229 49.1496 362.639 48.3196 361.945 48.5597C361.549 48.6996 361.24 49.2696 360.844 49.5296C358.706 50.9196 356.269 51.8696 354.056 52.9696C351.74 54.1196 349.521 55.7996 347.228 57.0996C344.625 58.5696 342.429 61.0896 339.895 62.5496C338.203 63.5296 336.684 65.7797 334.993 66.9797C333.875 67.7697 332.78 68.7197 331.719 69.7096C329.557 71.7296 327.476 73.6696 325.189 75.2096C322.276 77.1696 318.928 78.9896 315.723 78.0296C313.888 77.4796 312.088 74.9496 310.42 73.5796C308.705 72.1696 306.888 71.0196 305.202 69.4996C303.597 68.0496 302.141 66.2297 300.438 65.1197C298.855 64.0897 298.208 64.2896 296.654 65.1197C294.756 66.1396 292.824 67.2796 291.001 68.7597C289.602 69.8896 288.163 70.4196 286.764 71.4896C285.686 72.3196 284.769 73.5097 283.622 74.0897C278.537 76.6796 273.887 81.2596 268.715 83.4896C267.099 84.1896 265.723 84.9396 264.152 83.7196C262.787 82.6596 261.669 81.1896 260.442 79.7496C257.403 76.1996 254.319 72.7796 250.902 70.3997C246.109 67.0597 241.402 63.1796 236.414 60.7696C232.441 58.8496 228.634 54.6296 224.964 51.3996C220.693 47.6396 217.092 41.8896 213.033 37.5996C211.233 35.6896 209.284 33.6196 207.363 32.0896C205.339 30.4796 203.567 28.4596 201.624 26.6196C198.855 23.9896 195.862 21.5796 193.007 19.2296C190.708 17.3396 188.093 16.1596 185.937 13.7996C183.982 11.6596 182.039 10.2396 179.895 8.73964C177.452 7.02964 174.677 5.83964 172.361 3.68964C169.466 0.999641 166.972 -0.100357 163.721 0.0196427C162.517 0.0596427 161.187 0.399639 160.04 1.10964C159.26 1.58964 158.63 2.33964 157.821 2.76964C156.869 3.26964 156.193 3.62965 155.281 4.39965C151.606 7.50965 147.742 9.87965 144.055 13.0096C141.676 15.0296 139.417 17.4296 137.135 19.7296C135.197 21.6896 133.007 22.7396 131.092 24.7796C127.555 28.5396 124.086 32.1796 120.325 35.3596C116.667 38.4396 112.992 41.4596 109.311 44.4996C103.125 49.6096 97.3747 55.5696 91.2572 60.7996C88.746 62.9496 86.4871 66.4296 83.9128 68.1096C82.3476 69.1296 79.8135 69.2396 78.0017 68.8296C75.9435 68.3596 73.6845 66.6396 71.7008 64.9096C70.6688 64.0096 69.5279 63.2396 68.5475 62.1796C67.6588 61.2196 67.0109 59.8997 65.9159 59.5896C63.5021 58.9096 60.8533 60.6196 58.6689 62.1596C55.8424 64.1596 53.2853 66.9896 50.7225 69.6497C48.842 71.5996 47.0245 73.1396 45.0007 74.5396C43.768 75.3896 42.8277 76.8096 41.6123 77.7196C39.3705 79.3996 37.2205 81.7896 34.8928 83.2696C32.4447 84.8296 29.9965 86.0696 27.5025 87.3697C26.5107 87.8896 25.4729 88.4796 24.3779 88.1096C23.2541 87.7196 22.7783 86.0996 21.7577 85.4996C21.0296 85.0696 20.3645 85.5796 19.6421 85.3596C19.0573 85.1896 18.6503 84.5097 18.0655 84.3397C17.5093 84.1796 17.0621 84.4396 16.4888 84.1896C15.8639 83.9096 15.5887 83.5097 14.9121 83.4596C13.6909 83.3596 12.9399 82.9296 11.7817 82.5097C11.1052 82.2597 10.3599 82.5896 9.64893 82.3596C9.01253 82.1496 8.508 81.6596 7.81427 81.6096C0.756533 81.0896 -5.53867 77.3997 -11.7651 71.5996C-12.8487 70.5896 -13.6456 68.9197 -14.6719 67.8397C-15.3369 67.1397 -16.0823 66.7597 -16.7588 66.0996C-18.3527 64.5596 -19.7057 62.3496 -21.2595 60.7596C-22.1539 59.8396 -23.0769 58.9696 -24 58.1196V184.44C-16.7301 184.08 -9.294 185.09 -2.06427 186.12C7.5448 187.48 17.0277 189.94 26.6712 190.62C33.5741 191.1 40.4427 191.27 47.3284 192.23C53.2051 193.05 59.0703 194.11 64.9584 194.74C78.0992 196.14 91.2629 197.78 104.415 198.58C119.786 199.51 135.209 199.61 150.591 199.85C169.477 200.15 188.374 200.62 207.237 202.6C222.745 204.22 238.185 207.15 253.597 210.57C267.42 213.63 281.208 216.72 295.163 216.74C310.689 216.77 326.117 214.93 341.54 211.87C358.992 208.4 376.313 202.88 393.616 197.63C397.744 196.38 401.872 195.08 406 193.73V76.0396Z" fill="#9BBFBE"/>
<path d="M159.277 13.7496C160.539 11.8696 161.45 9.34965 162.677 7.31965C164.231 4.75965 166.341 2.47964 168.542 0.969639C167.035 0.249639 165.492 -0.0603521 163.726 0.00964794C162.522 0.0496479 161.192 0.389644 160.046 1.09964C159.266 1.57964 158.635 2.32965 157.827 2.75965C156.875 3.25965 156.199 3.61964 155.287 4.38964C151.612 7.49964 147.748 9.86964 144.061 12.9996C141.682 15.0196 139.423 17.4196 137.141 19.7196C135.203 21.6796 133.013 22.7296 131.098 24.7696C127.561 28.5296 124.092 32.1696 120.331 35.3496C116.673 38.4296 112.998 41.4496 109.317 44.4896C103.131 49.5996 97.3803 55.5596 91.2629 60.7896C88.7517 62.9396 86.4927 66.4196 83.9185 68.0996C83.4598 68.3997 82.9094 68.6096 82.3303 68.7597C82.4565 68.7796 82.5941 68.7896 82.7546 68.7896C84.251 68.7396 85.111 69.5897 86.4354 70.1697C88.4077 71.0197 89.3823 69.8496 91.2743 68.5696C93.5677 67.0097 95.8151 65.3596 98.0741 63.7196C99.6507 62.5796 101.182 62.6196 102.735 61.2296C106.588 57.7896 110.384 50.8996 114.833 50.4296C115.578 50.3496 116.426 50.7396 117.143 50.3796C117.86 50.0196 118.84 48.9596 119.557 48.4296C120.755 47.5496 121.541 45.8796 122.699 44.8996C123.467 44.2496 124.258 44.0496 125.049 43.5296C126.23 42.7496 127.245 41.3896 128.409 40.5196C129.82 39.4596 131.494 39.3096 132.732 37.6596C133.495 36.6396 134.085 35.1896 134.848 34.1296C136.516 31.8196 137.961 29.7896 139.818 27.9896C144.199 23.7196 149.284 23.0796 153.871 19.5296C155.9 17.9296 157.592 16.2596 159.277 13.7496Z" fill="#C3EBE8"/>
<path d="M58.6746 62.1396C55.848 64.1396 53.291 66.9696 50.7282 69.6296C48.8476 71.5796 47.0302 73.1196 45.0063 74.5196C43.7736 75.3696 42.8334 76.7896 41.6179 77.6996C39.3762 79.3796 37.2262 81.7696 34.8984 83.2496C32.6223 84.6996 30.3404 85.8796 28.0242 87.0796C28.7064 86.8696 29.3543 86.5396 29.6295 86.4096C30.5182 85.9996 31.4298 86.5796 32.2955 86.2496C33.2415 85.8996 34.2334 85.2796 35.1679 84.8396C36.3891 84.2596 37.3982 82.9496 38.5563 82.4896C40.1444 81.8596 42.0938 82.4596 43.6016 81.1996C44.2954 80.6196 44.6852 80.0596 45.4076 79.5596C46.1128 79.0796 46.8295 78.7396 47.5232 78.2096C49.3006 76.8496 50.539 76.1096 51.8576 73.5996C52.6947 72.0096 53.4916 70.7496 54.5695 69.6896C55.5786 68.6996 56.9947 67.9196 57.9235 66.7396C59.0014 65.3696 59.569 62.7796 60.6698 61.5996C61.7075 60.4896 63.0606 59.9396 64.2359 59.4496C62.3095 59.6796 60.3544 60.9496 58.6746 62.1396Z" fill="#C3EBE8"/>
<path d="M295.72 72.4096C297.405 69.8396 299.079 67.3496 301.189 66.0296C301.275 65.9796 301.361 65.9296 301.453 65.8796C301.126 65.6096 300.794 65.3496 300.45 65.1296C298.867 64.0996 298.219 64.2996 296.666 65.1296C294.768 66.1496 292.836 67.2896 291.012 68.7696C289.614 69.8996 288.174 70.4296 286.776 71.4996C285.698 72.3296 284.78 73.5196 283.634 74.0996C278.548 76.6896 273.898 81.2696 268.727 83.4996C268.108 83.7696 267.529 84.0396 266.955 84.2096C267.976 86.0396 268.469 86.8896 270.35 87.1896C274.007 87.7796 277.384 84.8596 280.756 82.7696C281.415 82.3596 282.355 81.6296 283.066 81.5496C283.966 81.4496 284.878 82.4896 285.784 82.5996C287.469 82.7996 288.61 81.4496 289.935 79.7996C291.116 78.3296 292.417 77.2496 293.638 75.8796C294.567 74.8396 294.894 73.6696 295.72 72.4096Z" fill="#C3EBE8"/>
<path d="M349.859 67.1296C351.109 66.1296 352.754 66.3896 354.079 65.8496C358.264 64.1396 360.162 59.7996 362.621 54.3696C363.476 52.4896 364.399 50.7596 365.402 49.1496C364.829 48.6996 364.261 48.2596 363.699 47.8496C363.229 49.1496 362.639 48.3196 361.945 48.5596C361.549 48.6996 361.24 49.2696 360.844 49.5296C358.705 50.9196 356.269 51.8696 354.056 52.9696C351.739 54.1196 349.521 55.7996 347.227 57.0996C344.624 58.5696 342.428 61.0896 339.894 62.5496C338.203 63.5296 336.684 65.7796 334.992 66.9796C333.874 67.7696 332.779 68.7196 331.719 69.7096C329.557 71.7296 327.476 73.6696 325.188 75.2096C322.373 77.0996 319.145 78.8696 316.032 78.1096C316.462 78.3296 316.881 78.5996 317.282 79.0896C317.982 79.9396 318.366 81.6896 318.928 82.5896C320.275 84.7496 324.3 82.6096 325.802 81.7196C329.322 79.6496 332.613 75.8696 336.162 74.3196C339.808 72.7196 343.587 72.3496 347.136 69.9296C348.196 69.2196 348.896 67.9096 349.859 67.1296Z" fill="#C3EBE8"/>
</svg>
