<svg width="375" height="208" viewBox="0 0 375 208" fill="none" xmlns="http://www.w3.org/2000/svg">
<path d="M406 53.272C405.731 53.6943 405.473 54.1503 405.14 54.3614C404.475 54.7921 403.626 54.5894 402.927 54.8428C399.934 55.9406 396.666 59.2341 394.035 61.548C392.028 63.3214 390.251 65.9731 387.7 65.0949C384.392 63.9548 382.012 59.0737 379.106 56.5909C374.387 52.5458 370.345 58.1616 365.661 60.163C364.927 60.4755 364.205 60.4164 363.471 60.6444C362.967 60.7964 363.334 61.6747 362.502 61.6747C362.227 61.6747 360.484 60.5937 360.152 60.4249C357.893 59.251 355.686 57.942 353.427 56.7598C348.68 54.277 343.789 51.0088 339.621 46.7357C337.122 44.1684 334.266 41.863 331.555 39.7686C329.967 38.5441 328.229 37.6068 326.607 36.4751C324.973 35.3351 323.872 33.2323 322.296 32.0247C318.426 29.069 314.355 26.5862 310.634 23.2082C307.825 20.6579 304.878 18.4537 301.937 16.2412C300.355 15.0505 299.34 13.1588 297.872 11.8498C296.244 10.3889 294.289 9.67951 292.649 8.10031C290.66 6.18332 288.705 4.08055 286.767 2.30712C282.674 -1.43396 278.167 0.314127 273.753 1.0995C270.743 1.63153 267.429 4.30012 264.711 6.234C262.642 7.70341 260.526 8.64923 258.548 10.448C256.737 12.0947 255.022 13.6739 253.027 14.8309C249.501 16.8746 246.182 20.2187 242.559 21.7979C240.311 22.7775 238.11 23.6642 235.891 24.4834C232.801 25.6235 229.584 28.5623 226.643 30.4539C223.289 32.6158 219.792 34.5497 216.604 37.1423C213.136 39.9629 209.426 42.015 205.763 44.2022C202.656 46.0601 199.451 49.286 196.125 50.0883C193.729 50.6626 191.396 50.443 189.074 51.6337C186.322 53.044 183.707 55.1383 181.07 56.954C178.152 58.9639 174.941 59.6564 171.977 61.6071C169.879 62.9836 167.597 63.7099 165.47 65.0358C163.853 66.0407 162.529 67.5101 160.964 68.6079C157.507 71.0316 153.614 71.9014 149.962 73.4553C146.82 74.7896 143.804 75.9888 140.628 76.9684C135.807 78.4547 130.503 77.9818 125.86 75.803C122.712 74.3251 120.155 72.1295 117.208 70.0267C114.594 68.1604 112.295 64.0815 109.296 63.8704C105.673 63.617 102.365 63.769 99.0398 65.8971C96.1961 67.7212 94.8775 69.292 91.9822 67.375C83.7437 61.9365 82.0638 58.2883 73.8367 65.3482C72.4493 66.5389 70.9128 68.2279 69.491 69.1738C67.7825 70.3138 66.6702 68.8191 65.1223 67.6621C61.7569 65.1624 58.8158 62.3672 55.6625 59.5043C49.9924 54.353 43.4853 50.5697 37.517 46.1783C30.9353 41.3309 24.3766 36.5005 17.8006 31.6531C16.0864 30.3948 13.9307 29.3561 12.4344 27.5911C11.2705 26.223 11.4368 25.8008 9.92896 25.5306C6.27693 24.8634 2.47583 28.7734 -0.918213 30.4962C-3.36628 31.746 -5.91755 33.0887 -8.23375 34.8199C-10.8767 36.796 -13.5599 38.1219 -16.3118 39.794C-18.8631 41.3394 -21.4487 42.5808 -24 44.0333V206.614C-12.9694 207.391 -1.95592 208.025 9.10338 207.999C26.7845 207.957 44.4312 207.856 62.0952 206.581C81.0261 205.212 99.9972 203.008 118.905 201.007C137.699 199.022 156.526 196.632 175.348 195.484C196.229 194.209 217.029 191.126 237.915 190.181C262.9 189.049 287.937 188.627 312.933 188.255C334.02 187.934 354.774 185.519 375.78 183.028C385.859 181.837 395.927 180.444 405.983 178.898V53.272H406Z" fill="#BAD8D8"/>
<path d="M367.5 62C365.5 61.2 364 61.6667 363.5 62H363C363.167 61.6667 363.8 61 365 61C366.2 61 368.833 59 370 58C375.2 54 377.833 55.6667 378.5 57L376.5 56.5L375.5 57V58L373.5 58.5H371.5V60H370V61H369C369.333 61.6667 369.5 62.8 367.5 62Z" fill="#EAF4FF"/>
<path d="M397 60L391.5 64.5C390.278 65.5 387 66 388 66C389 66 392 65 396.5 63.5C401 62 403.5 60 402 60C400.8 60 400.167 59.3333 400 59L405.5 56.5C405.5 56 405.2 55.1 404 55.5C402.8 55.9 401.833 56.3333 401.5 56.5L399 58L397 60Z" fill="#EAF4FF"/>
<path d="M266.5 9.99999C267.287 8.68864 268.812 7.44894 270.659 6.33374C275.318 3.52066 275.12 0.0596487 269.974 1.8312C269.574 1.969 269.317 2.10962 268.954 2.32744L267 3.49999L264 5.49999L260.5 7.49999C259.5 8.16666 257.5 9.59999 257.5 9.99999C257.5 10.4 253.833 12.8333 252 14C250.333 15.3333 246.9 18.1 246.5 18.5C246 19 242 21.5 241.5 21.5C241.1 21.5 237.667 23.1667 236 24L232.955 25.384C231.326 26.1243 229.817 27.0975 228.429 28.2261C225.931 30.2576 222.715 32.6962 221.5 33C220.107 33.3481 215.585 36.751 212.677 39.0561C211.889 39.6803 211.202 40.441 210.338 40.9545C208.339 42.1433 205.608 42.0535 201 46C196.78 49.6138 191.368 51.2812 188.111 51.4893C187.389 51.5354 186.673 51.7135 186.068 52.1094L184.563 53.0931C181.94 54.8087 182.949 56.8221 185.5 55C189 52.5 191 54 195.5 55C200 56 201.5 53.5 207 50.5C208.268 49.8083 212.883 45.5 214.327 45.5H215H230C240 45.5 235.5 42 240.5 37C240.858 36.6422 241.189 36.2685 241.495 35.8827C246.029 30.1704 249.445 22.5441 256.12 19.607C257.038 19.2031 257.924 18.729 258.725 18.1253C261.003 16.4077 264.509 13.3186 266.5 9.99999Z" fill="#CEEBEB"/>
<path d="M87.4751 75.1312L83.2252 76.1937C82.5093 76.3727 81.7651 76.0304 81.4351 75.3703C81.1684 74.8369 80.6232 74.5 80.0269 74.5H77.2475C76.751 74.5 76.2571 74.564 75.7675 74.646C74.785 74.8107 73.1103 75 71 75C69.0393 75 69.4717 67.9423 70.9865 66.6974C71.7403 66.0779 72.4382 65.4868 72.9999 65C79.4999 59 84.4999 65.5 86.4999 67.5C87.5659 68.566 89.7269 68.8034 91.5927 68.7446C93.1817 68.6944 94.6248 67.9343 95.9841 67.11C98.8621 65.3647 101.677 64.7755 103.984 64.7429C106.269 64.7106 106.987 67.2647 105.5 69C104.5 70.1667 102.3 72.9 101.5 74.5C100.879 75.7423 98.0071 76.2611 95.74 76.4311C94.5975 76.5167 93.4665 76.2333 92.4417 75.7209L92.3278 75.6639C90.8256 74.9128 89.1044 74.7239 87.4751 75.1312Z" fill="#CEEBEB"/>
<path d="M2.99995 28C2.41353 27.4136 4.657 27.1496 6.81573 27.0504C7.6212 27.0134 7.80756 26.275 7.04432 26.0149C7.00379 26.0011 6.98147 25.9902 6.94239 25.9727C5.68581 25.4098 3.22038 26.332 1.40195 27.2368C0.45035 27.7103 -0.39418 28.363 -1.24005 29.0066C-2.27684 29.7955 -3.22686 30.3709 -4.34753 30.903C-6.06669 31.7193 -7.75814 32.6036 -9.2852 33.7393C-12.0811 35.8187 -14.3071 37.2295 -18 39L-22.3357 41.5292C-23.3663 42.1303 -24 43.2337 -24 44.4268C-24 45.6974 -23.0076 46.7703 -22.2076 45.7831C-22.1382 45.6974 -22.0688 45.6033 -22 45.5C-21 44 -17 41 -16.5 41C-16 41 -12.5 41 -11 37C-9.5 33 -5 36.5 -4.5 33.5C-4 30.5 3.99995 29 2.99995 28Z" fill="#CEEBEB"/>
</svg>
