<svg width="192" height="44" viewBox="0 0 192 44" fill="none" xmlns="http://www.w3.org/2000/svg">
<path d="M180.966 105.44C178.141 103.61 175.509 101.4 172.868 99.31C170.159 97.16 167.344 95.33 164.838 92.89C158.774 87.01 152.894 80.92 147.062 74.8C143.264 70.81 138.656 67.24 134.347 63.89C132.313 62.31 130.77 60.33 128.592 58.92C127.608 58.28 126.644 57.6 125.68 56.93C123.579 55.46 121.333 54.42 119.135 53.13C114.035 50.14 107.644 48.28 101.985 46.79C98.6112 45.9 94.9672 45.22 91.5258 44.7C88.0072 44.17 84.4404 43.55 80.9025 43.17C77.5574 42.81 74.328 41.71 70.954 41.79C69.4694 41.83 68.303 41.56 66.8666 41.26C65.0929 40.88 63.2998 41.28 61.5261 41.06C58.3931 40.66 54.2093 39.97 51.6258 37.97C49.264 36.14 46.7383 33.35 45.0899 30.82C43.9524 29.07 43.2197 27.07 41.9665 25.4C40.8676 23.93 38.3515 21.17 38.3515 21.17C38.3515 21.17 32.8278 15.6 29.7044 13.22C21.8382 7.24 13.49 4.52998 4.02348 2.72998C-5.25984 0.969981 -14.6203 0.27 -24 0V110.77H191.637C187.945 109.34 184.378 107.65 180.966 105.44Z" fill="#021713"/>
</svg>
