<svg width="54" height="53" viewBox="0 0 54 53" fill="none" xmlns="http://www.w3.org/2000/svg">
<path d="M20.2805 41.5307C20.5589 38.7515 21.9618 36.2565 23.0595 33.8121C24.3073 31.0123 25.5077 28.1694 26.7555 25.3696C27.3557 23.9482 27.9625 22.6147 28.5627 21.1932C28.6785 20.9707 28.7943 20.7481 28.8628 20.4825C29.0536 20.0823 29.0325 20.3909 28.897 20.3497C28.9444 20.3928 28.3683 20.361 28.3683 20.361C28.3683 20.361 28.9822 21.4925 29.0834 21.6664C30.5332 24.5408 31.9831 27.4153 33.4329 30.2897C35.0444 33.5569 36.6967 36.7792 38.3082 40.0464C38.7196 40.83 39.831 40.9384 40.469 40.6167C41.2294 40.1603 41.2928 39.2345 40.9287 38.4939C39.3238 35.3146 37.6715 32.0923 36.1073 28.8682C34.5023 25.6889 33.0263 22.4628 31.2925 19.3303C30.53 17.9819 29.1296 16.9553 27.5826 17.5164C26.0357 18.0776 25.5629 20.0245 24.9561 21.3581C23.5991 24.4683 22.2829 27.5338 20.9258 30.6441C20.169 32.3329 19.4188 34.1097 18.6619 35.7986C17.9867 37.3976 17.3588 39.0398 17.1373 40.8053C17.0673 41.6431 17.526 42.4697 18.3796 42.6717C19.2331 42.8736 20.1632 42.3255 20.2805 41.5307Z" fill="#FFEFBB"/>
<path d="M18.992 28.9343C18.6621 28.5577 18.71 28.2936 18.7294 27.8496C18.835 27.0994 19.0697 26.3127 19.2662 25.5682C19.6065 24.0313 20.0377 22.5 20.378 20.9631C21.1352 17.805 21.8924 14.647 22.6878 11.4468C23.1047 9.82561 23.469 8.15665 23.8859 6.53548C24.0201 5.96511 24.116 5.43688 24.3554 4.96209C24.4176 4.7879 24.4942 4.70365 24.6473 4.53511C24.6473 4.53511 24.8388 4.32444 24.7239 4.45084C24.7239 4.45084 24.6856 4.49296 24.633 4.44517C24.8531 4.41434 24.8531 4.41434 24.6713 4.40303C24.418 3.94211 24.6473 4.5351 24.5804 4.39739C24.5947 4.48731 24.7908 4.58855 24.8434 4.63634C25.0681 4.91742 25.2402 5.15069 25.4648 5.43177C26.0863 6.22722 26.7078 7.02268 27.2909 7.86026C28.3761 9.3078 29.4755 10.8453 30.5224 12.3349C32.9077 15.7331 35.2164 19.2155 37.3576 22.7765C37.8499 23.6084 38.9691 23.8561 39.6389 23.5417C40.3852 23.143 40.3713 22.2072 39.9316 21.4231C37.7378 17.8143 35.429 14.3319 32.9912 10.886C31.7722 9.163 30.5533 7.44004 29.2052 5.75356C28.0149 4.21044 26.7627 1.99573 24.7827 1.42735C20.9135 0.296257 20.4615 5.65462 19.939 8.02601C19.0716 11.6224 18.2042 15.2188 17.3368 18.8151C16.848 20.8325 16.3592 22.8498 15.8704 24.8672C15.5061 26.5361 14.8355 28.5422 16.3797 30.3299C16.9868 31.0354 17.9146 31.4938 18.6609 31.0951C19.4073 30.6963 19.6517 29.6877 18.992 28.9343Z" fill="#6BAC4F"/>
</svg>
