<svg width="64" height="129" viewBox="0 0 64 129" fill="none" xmlns="http://www.w3.org/2000/svg">
<path d="M29.5413 5.43135C29.5413 4.12055 28.8617 2.97364 28.3862 2.33159C28.1334 1.99018 27.6799 1.90749 27.3004 2.0984C25.4611 3.02354 20.0908 5.87076 17.5836 8.76571C13.0783 13.9679 15.7162 20.5075 15.0715 24.2744C14.3681 28.3842 11.1906 31.8858 9.84634 36.9915C7.33035 46.5473 11.2531 54.3612 9.84634 61.9605C9.21029 65.3964 5.53664 66.3963 4.2192 69.7148C-1.10649 83.1299 4.28756 104.514 8.54005 106.005C14.0667 107.944 23.7132 105.773 25.8234 106.626C27.9336 107.478 29.889 109.45 33.0583 110.968C35.9723 112.364 39.0874 115 37.1782 116.999C35.269 118.999 15.0716 116.666 7.83665 120.566C6.41063 121.335 4.77721 122.335 4.01823 123.685C3.43694 124.719 3.5976 125.697 3.78996 126.269C3.9022 126.602 4.2334 126.783 4.58404 126.751C5.35981 126.681 6.86194 126.473 8.64052 125.856C10.5828 125.183 12.8548 123.528 14.8706 123.685C24.8186 124.46 35.4699 126.787 43.0063 124.46C48.9482 122.626 53.1552 117.559 52.0499 113.992C50.8931 110.259 39.2767 105.587 43.0063 104.764C45.1164 104.299 51.447 105.695 55.3659 104.222C59.6674 102.604 58.9266 96.1244 58.7225 94.7755C58.6975 94.6104 58.7062 94.4533 58.7556 94.2938C59.2976 92.5464 62.6213 81.4384 61.8973 74.0573C60.9513 64.4124 55.8683 56.9202 52.0499 50.4841C49.1955 45.6729 52.1726 42.1116 50.4421 36.9915C49.0297 32.8125 43.8905 29.8575 45.0159 26.7558C46.4227 22.8786 49.6345 20.1553 49.3368 15.0467C49.0803 10.6446 44.9218 4.63348 43.3771 2.54125C43.0615 2.11391 42.4679 2.02983 42.0715 2.38347C41.3271 3.04769 40.2487 4.19198 39.9917 5.43135M29.5413 5.43135C33.5607 5.12117 35.8718 4.96608 39.9917 5.43135M29.5413 5.43135C28.9135 5.61304 27.9336 5.66398 27.9336 5.66398M39.9917 5.43135C40.5803 5.61304 41.499 5.66398 41.499 5.66398" stroke="#C97C4D" stroke-width="4" stroke-linecap="round" stroke-linejoin="round"/>
</svg>
